<svg width="268" height="307" viewBox="0 0 268 307" fill="none" xmlns="http://www.w3.org/2000/svg">
<rect x="28.7143" y="38.2858" width="220.143" height="181.857" fill="#222831"/>
<path d="M236.606 0H31.3943C14.0891 0 0 14.0685 0 31.5013V238.248C0 255.68 14.0891 269.749 31.3943 269.749H205.058L196.942 241.459L216.544 259.656L235.074 276.783L268 305.838V31.5013C268 14.0685 253.911 0 236.606 0ZM177.493 199.712C177.493 199.712 171.979 193.136 167.385 187.326C187.447 181.668 195.104 169.128 195.104 169.128C188.825 173.257 182.853 176.163 177.493 178.15C169.835 181.362 162.485 183.503 155.287 184.726C140.585 187.479 127.109 186.714 115.623 184.573C106.894 182.891 99.3897 180.444 93.1109 177.998C89.5886 176.621 85.76 174.939 81.9314 172.798C81.472 172.492 81.0126 172.34 80.5531 172.034C80.2469 171.881 80.0937 171.728 79.9406 171.575C77.184 170.046 75.6526 168.975 75.6526 168.975C75.6526 168.975 83.0034 181.209 102.453 187.02C97.8583 192.831 92.192 199.712 92.192 199.712C58.3474 198.642 45.4834 176.468 45.4834 176.468C45.4834 127.228 67.536 87.3167 67.536 87.3167C89.5886 70.8014 110.569 71.2602 110.569 71.2602L112.101 73.0952C84.5349 81.047 71.824 93.1276 71.824 93.1276C71.824 93.1276 75.1931 91.2925 80.8594 88.6929C97.2457 81.5057 110.263 79.5178 115.623 79.059C116.542 78.9061 117.307 78.7532 118.226 78.7532C127.568 77.5299 138.135 77.224 149.161 78.4474C163.71 80.1295 179.33 84.4112 195.257 93.1276C195.257 93.1276 183.159 81.6587 157.125 73.7069L159.269 71.2602C159.269 71.2602 180.249 70.8014 202.302 87.3167C202.302 87.3167 224.354 127.228 224.354 176.468C224.354 176.468 211.337 198.642 177.493 199.712ZM106.281 128.299C97.552 128.299 90.6606 135.945 90.6606 145.273C90.6606 154.601 97.7051 162.247 106.281 162.247C115.01 162.247 121.902 154.601 121.902 145.273C122.055 135.945 115.01 128.299 106.281 128.299ZM162.178 128.299C153.449 128.299 146.558 135.945 146.558 145.273C146.558 154.601 153.602 162.247 162.178 162.247C170.907 162.247 177.799 154.601 177.799 145.273C177.799 135.945 170.907 128.299 162.178 128.299Z" fill="#FFDD55"/>
</svg>
