<?xml version="1.0" standalone="no"?>
<!DOCTYPE svg PUBLIC "-//W3C//DTD SVG 1.1//EN" "http://www.w3.org/Graphics/SVG/1.1/DTD/svg11.dtd" >
<svg xmlns="http://www.w3.org/2000/svg" xmlns:xlink="http://www.w3.org/1999/xlink" version="1.1">
<metadata>
Created by FontForge 20200427 at Thu Mar 25 05:58:27 1999
 By www
Copyright 1990-1998 Bitstream Inc.  All rights reserved.
</metadata>
<defs>
<font id="Humanist777BT-BlackItalicB" horiz-adv-x="1024" >
  <font-face 
    font-family="Humnst777 Blk BT"
    font-weight="400"
    font-style="italic"
    font-stretch="normal"
    units-per-em="2048"
    panose-1="2 11 8 3 3 5 4 10 2 4"
    ascent="1556"
    descent="-492"
    x-height="1053"
    cap-height="1421"
    bbox="-311 -498 2714 2056"
    underline-thickness="199"
    underline-position="-312"
    slope="-12"
    unicode-range="U+0020-F002"
  />
<missing-glyph horiz-adv-x="1229" 
d="M102 -362v1806h1024v-1806h-1024zM217 -248h795v1577h-795v-1577z" />
    <glyph glyph-name=".notdef" horiz-adv-x="1229" 
d="M102 -362v1806h1024v-1806h-1024zM217 -248h795v1577h-795v-1577z" />
    <glyph glyph-name=".null" horiz-adv-x="0" 
 />
    <glyph glyph-name="nonmarkingreturn" horiz-adv-x="631" 
 />
    <glyph glyph-name="space" unicode=" " horiz-adv-x="631" 
 />
    <glyph glyph-name="exclam" unicode="!" horiz-adv-x="901" 
d="M205 328h338l-66 -328h-338zM418 1421h375l-250 -956h-281z" />
    <glyph glyph-name="quotedbl" unicode="&#x22;" horiz-adv-x="713" 
d="M416 1438h223v-561h-223v561zM76 1438h219v-561h-219v561z" />
    <glyph glyph-name="numbersign" unicode="#" horiz-adv-x="1575" 
d="M707 842l-82 -232h245l82 232h-245zM684 1466h250l-139 -393h235l141 393h250l-139 -393h270l-86 -231h-268l-80 -230h277l-84 -231h-275l-141 -393h-250l139 393h-235l-141 -393h-250l139 393h-274l86 231h270l82 230h-283l86 231h279z" />
    <glyph glyph-name="dollar" unicode="$" horiz-adv-x="1262" 
d="M651 588l-73 -336h4q87 0 143.5 54.5t56.5 135.5q0 55 -32 91t-99 55zM694 1186q-90 -6 -142 -47.5t-52 -106.5q0 -44 31.5 -74.5t103.5 -54.5zM782 1608h117l-37 -176q81 -6 166.5 -20.5t175.5 -37.5l-80 -262q-77 31 -155.5 49.5t-159.5 24.5l-64 -305
q191 -53 283 -147.5t92 -235.5q0 -226 -159.5 -366t-421.5 -140h-11l-41 -172h-112l34 170q-100 1 -199 18t-198 49l80 279q118 -40 209 -61t164 -25l76 354q-192 63 -282.5 160.5t-90.5 243.5q0 191 153.5 306.5t413.5 115.5h13z" />
    <glyph glyph-name="percent" unicode="%" horiz-adv-x="1944" 
d="M1509 623q-52 0 -75 -55t-23 -185q0 -131 22.5 -184.5t75.5 -53.5q54 0 76.5 53.5t22.5 184.5t-23 185.5t-76 54.5zM1511 801q165 0 262 -113t97 -305q0 -191 -97.5 -303.5t-261.5 -112.5q-163 0 -261.5 113.5t-98.5 302.5q0 192 98 305t262 113zM432 1278
q-53 0 -76.5 -56t-23.5 -184q0 -132 22.5 -185.5t75.5 -53.5t75.5 53.5t22.5 185.5q0 133 -22 186.5t-74 53.5zM1241 1456h211l-750 -1489h-213zM432 1456q164 0 261.5 -113t97.5 -305q0 -191 -97.5 -304t-261.5 -113q-163 0 -260.5 113t-97.5 304q0 192 97 305t261 113z
" />
    <glyph glyph-name="ampersand" unicode="&#x26;" horiz-adv-x="1579" 
d="M551 612q-84 -43 -128 -99.5t-44 -121.5q0 -89 53 -137.5t150 -48.5q61 0 119.5 19t113.5 57zM834 723l208 -264q68 66 111 143.5t59 165.5h299q-39 -174 -112 -305t-185 -227l199 -236h-375l-63 84q-97 -61 -203 -91t-227 -30q-231 0 -364.5 110t-133.5 298
q0 158 95.5 273.5t260.5 156.5q-61 71 -91.5 140.5t-30.5 139.5q0 172 135.5 274.5t367.5 102.5q196 0 315.5 -96t119.5 -252q0 -124 -94.5 -219t-290.5 -168zM698 899q107 38 161 88.5t54 112.5q0 55 -42 92t-105 37q-76 0 -124 -45t-48 -115q0 -39 22.5 -76.5t81.5 -93.5z
" />
    <glyph glyph-name="quotesingle" unicode="'" horiz-adv-x="371" 
d="M76 1438h219v-561h-219v561z" />
    <glyph glyph-name="parenleft" unicode="(" horiz-adv-x="793" 
d="M655 1561h312q-255 -256 -388 -557.5t-133 -620.5q0 -177 35.5 -342.5t106.5 -325.5h-269q-92 193 -138 382.5t-46 377.5q0 305 133 581.5t387 504.5z" />
    <glyph glyph-name="parenright" unicode=")" horiz-adv-x="793" 
d="M172 1559h270q92 -189 137.5 -378.5t45.5 -381.5q0 -304 -132 -578.5t-389 -505.5h-309q253 251 385.5 553t132.5 623q0 177 -35 342.5t-106 325.5z" />
    <glyph glyph-name="asterisk" unicode="*" 
d="M463 1534h254l-70 -350l314 172l75 -238l-354 -45l260 -246l-201 -145l-151 330l-152 -330l-200 145l260 246l-355 45l76 238l316 -172z" />
    <glyph glyph-name="plus" unicode="+" horiz-adv-x="1706" 
d="M735 1221h238v-494h479v-231h-479v-496h-238v496h-481v231h481v494z" />
    <glyph glyph-name="comma" unicode="," horiz-adv-x="631" 
d="M123 322h358l-303 -545h-287z" />
    <glyph glyph-name="hyphen" unicode="-" horiz-adv-x="678" 
d="M70 725h551l-56 -258h-551z" />
    <glyph glyph-name="period" unicode="." horiz-adv-x="631" 
d="M92 328h340l-70 -328h-339z" />
    <glyph glyph-name="slash" unicode="/" horiz-adv-x="573" 
d="M395 1497h201l-408 -1497h-200z" />
    <glyph glyph-name="zero" unicode="0" horiz-adv-x="1262" 
d="M850 1006q0 98 -33.5 150t-95.5 52q-49 0 -95 -38t-79 -107q-30 -62 -55 -142.5t-48 -185.5q-20 -94 -30.5 -172t-10.5 -137q0 -101 36 -156t102 -55q48 0 89 34.5t75 102.5q30 64 55.5 145t46.5 179q21 96 32 180t11 150zM700 1456q248 0 371 -132.5t123 -397.5
q0 -199 -52 -392t-143 -331q-76 -117 -189.5 -177.5t-256.5 -60.5q-235 0 -361 141.5t-126 405.5q0 214 60.5 412.5t166.5 332.5q75 96 181 147.5t226 51.5z" />
    <glyph glyph-name="one" unicode="1" horiz-adv-x="1262" 
d="M772 1421h279l-291 -1421h-359l238 1061l-283 -205l-145 274z" />
    <glyph glyph-name="two" unicode="2" horiz-adv-x="1262" 
d="M834 498l-330 -232h545l-58 -266h-1005l53 266l530 402q124 93 179 172t55 159q0 89 -57 140t-154 51q-58 0 -134 -20.5t-204 -71.5l41 301q100 32 194 47.5t183 15.5q229 0 363 -114t134 -310q0 -147 -86.5 -286.5t-248.5 -253.5z" />
    <glyph glyph-name="three" unicode="3" horiz-adv-x="1262" 
d="M807 735q129 -35 193.5 -110t64.5 -189q0 -222 -165.5 -345.5t-465.5 -123.5q-111 0 -226.5 23.5t-236.5 70.5l76 283q72 -44 157 -66t185 -22q147 0 232.5 55.5t85.5 149.5q0 79 -72 116t-225 37q-33 0 -53 -0.5t-37 -0.5l51 245q18 0 49.5 -1t46.5 -1q203 0 282.5 37.5
t79.5 128.5q0 77 -60.5 121.5t-166.5 44.5q-71 0 -159.5 -17t-192.5 -51l43 281q98 26 196.5 38.5t198.5 12.5q230 0 361 -98.5t131 -270.5q0 -142 -100 -236t-273 -112z" />
    <glyph glyph-name="four" unicode="4" horiz-adv-x="1262" 
d="M829 1167l-514 -630h363zM778 1421h416l-188 -884h202l-55 -252h-201l-59 -285h-354l59 285h-612l41 252z" />
    <glyph glyph-name="five" unicode="5" horiz-adv-x="1262" 
d="M340 1421h926l-56 -256h-604l-48 -233q31 2 47.5 3t29.5 1q217 0 346 -115.5t129 -308.5q0 -106 -42.5 -199.5t-123.5 -165.5q-93 -82 -222.5 -127t-272.5 -45q-107 0 -211 19.5t-209 58.5l61 291q74 -46 158.5 -69t179.5 -23q145 0 232.5 67.5t87.5 176.5
q0 101 -76.5 153.5t-222.5 52.5q-47 0 -116 -6t-161 -18z" />
    <glyph glyph-name="six" unicode="6" horiz-adv-x="1262" 
d="M614 676q-90 0 -145 -71t-55 -187q0 -100 41 -152.5t120 -52.5q91 0 150 77t59 195q0 86 -46.5 138.5t-123.5 52.5zM1241 1343l-80 -243q-69 50 -143.5 75t-157.5 25q-147 0 -238.5 -88t-148.5 -285q59 41 121.5 60.5t134.5 19.5q184 0 294 -114.5t110 -307.5
q0 -230 -150 -372t-397 -142q-234 0 -366 143t-132 398q0 163 40.5 323.5t111.5 282.5q97 167 246 250.5t348 83.5q102 0 203 -27t204 -82z" />
    <glyph glyph-name="seven" unicode="7" horiz-adv-x="1262" 
d="M262 1421h1028l-65 -313l-738 -1108h-415l661 987q19 28 56 76t83 102h-663z" />
    <glyph glyph-name="eight" unicode="8" horiz-adv-x="1262" 
d="M606 625q-122 -45 -175.5 -100.5t-53.5 -135.5q0 -81 48 -125.5t136 -44.5q89 0 149 57t60 140q0 57 -36 104t-128 105zM874 725q123 -59 178.5 -134t55.5 -179q0 -219 -145.5 -331t-430.5 -112q-235 0 -369 105.5t-134 290.5q0 142 93 247.5t253 145.5q-90 57 -132 130
t-42 171q0 180 147.5 291.5t392.5 111.5q220 0 345.5 -100t125.5 -275q0 -134 -86 -226.5t-252 -135.5zM653 850q112 37 174 98.5t62 134.5q0 59 -49.5 100.5t-122.5 41.5q-87 0 -139 -53.5t-52 -143.5q0 -45 32 -89.5t95 -88.5z" />
    <glyph glyph-name="nine" unicode="9" horiz-adv-x="1262" 
d="M12 74l90 252q76 -49 147.5 -73t143.5 -24q154 0 254.5 98t138.5 285q-50 -44 -112.5 -65t-143.5 -21q-182 0 -291.5 114t-109.5 302q0 225 145 366.5t379 141.5q249 0 381.5 -141.5t132.5 -407.5q0 -179 -47 -347.5t-133 -295.5q-102 -151 -231 -217t-328 -66
q-121 0 -224 24.5t-192 74.5zM848 1014q0 98 -42 150.5t-120 52.5q-83 0 -142 -75t-59 -184q0 -94 40.5 -143t119.5 -49q90 0 146.5 68.5t56.5 179.5z" />
    <glyph glyph-name="colon" unicode=":" horiz-adv-x="901" 
d="M209 332h338l-70 -332h-340zM365 1053h340l-72 -332h-340z" />
    <glyph glyph-name="semicolon" unicode=";" horiz-adv-x="901" 
d="M240 322h360l-305 -545h-285zM358 1053h340l-69 -328h-340z" />
    <glyph glyph-name="less" unicode="&#x3c;" horiz-adv-x="1706" 
d="M1442 1214v-253l-854 -351l854 -348v-254l-1178 486v233z" />
    <glyph glyph-name="equal" unicode="=" horiz-adv-x="1706" 
d="M254 502h1198v-230h-1198v230zM254 950h1198v-231h-1198v231z" />
    <glyph glyph-name="greater" unicode="&#x3e;" horiz-adv-x="1706" 
d="M264 1214l1178 -487v-233l-1178 -486v254l854 348l-854 351v253z" />
    <glyph glyph-name="question" unicode="?" horiz-adv-x="1128" 
d="M283 317h342l-68 -317h-342zM639 471h-292q1 95 41.5 170.5t156.5 179.5q13 12 38 34q142 128 142 212q0 68 -54.5 103.5t-158.5 35.5q-80 0 -162.5 -19t-156.5 -54l43 276q86 26 172.5 38.5t175.5 12.5q236 0 372 -92.5t136 -251.5q0 -172 -261 -402l-19 -17
q-107 -94 -140 -140t-33 -86z" />
    <glyph glyph-name="at" unicode="@" horiz-adv-x="2048" 
d="M1161 262q-56 -82 -126.5 -120t-168.5 -38q-163 0 -247 87.5t-84 257.5q0 241 141.5 404t349.5 163q77 0 134 -30.5t95 -92.5l52 92h206l-153 -610q0 -2 -1 -6q-3 -18 -3 -27q0 -30 16 -44.5t47 -14.5q137 0 240.5 143.5t103.5 335.5q0 239 -179.5 390t-467.5 151
q-148 0 -274 -36.5t-230 -109.5q-155 -110 -239 -274.5t-84 -356.5q0 -302 203 -481.5t544 -179.5q164 0 316 47.5t280 138.5l97 -135q-156 -117 -329 -175t-364 -58q-192 0 -354.5 49t-288.5 145q-157 122 -234 281.5t-77 361.5q0 169 53 320.5t156 277.5
q148 183 359.5 278t467.5 95q170 0 320 -46t260 -132q136 -107 203 -243t67 -306q0 -167 -65.5 -307t-190.5 -240q-69 -56 -154 -85.5t-176 -29.5q-106 0 -161 40t-60 120zM1198 696q-9 76 -50 116t-110 40q-103 0 -181.5 -121.5t-78.5 -286.5q0 -83 35 -128.5t98 -45.5
q84 0 148 59t88 158z" />
    <glyph glyph-name="A" unicode="A" horiz-adv-x="1532" 
d="M903 1143l-315 -572h383zM713 1421h471l229 -1421h-377l-37 303h-557l-170 -303h-399z" />
    <glyph glyph-name="B" unicode="B" horiz-adv-x="1374" 
d="M492 618l-76 -358h170q135 0 207.5 53t72.5 152q0 77 -47.5 115t-142.5 38h-184zM610 1178l-67 -326h131q131 0 204.5 48.5t73.5 133.5q0 66 -46 105t-126 39h-170zM297 1421h537q118 0 189 -8.5t114 -28.5q89 -40 137.5 -112.5t48.5 -165.5q0 -146 -103 -247t-270 -116
q133 -25 207 -102.5t74 -189.5q0 -105 -46 -194t-132 -151q-80 -56 -187 -81t-299 -25h-573z" />
    <glyph glyph-name="C" unicode="C" horiz-adv-x="1356" 
d="M1442 1370l-94 -289q-75 47 -158.5 70t-179.5 23q-257 0 -401 -145.5t-144 -403.5q0 -168 109 -266.5t296 -98.5q83 0 167.5 22t172.5 66l-36 -328q-104 -26 -201 -39.5t-189 -13.5q-335 0 -522.5 177t-187.5 491q0 162 58.5 313t162.5 258q125 129 284.5 188.5
t378.5 59.5q114 0 234 -21t250 -63z" />
    <glyph glyph-name="D" unicode="D" horiz-adv-x="1583" 
d="M621 1147l-185 -866h160q126 0 211.5 28.5t148.5 91.5q77 77 119.5 183.5t42.5 220.5q0 163 -92 252.5t-262 89.5h-143zM291 1421h473q375 0 558 -155t183 -473q0 -183 -63.5 -338.5t-179.5 -255.5q-119 -104 -279 -151.5t-399 -47.5h-594z" />
    <glyph glyph-name="E" unicode="E" horiz-adv-x="1237" 
d="M287 1421h1001l-57 -264h-623l-59 -285h586l-54 -256h-587l-74 -350h645l-57 -266h-1024z" />
    <glyph glyph-name="F" unicode="F" horiz-adv-x="1157" 
d="M289 1421h950l-57 -264h-574l-63 -307h549l-56 -266h-551l-122 -584h-379z" />
    <glyph glyph-name="G" unicode="G" horiz-adv-x="1561" 
d="M1491 1386l-82 -292q-80 43 -165.5 64.5t-178.5 21.5q-282 0 -442 -144t-160 -395q0 -183 98 -287t270 -104q35 0 72 5.5t80 16.5l64 297h-234l55 258h592l-168 -786q-106 -35 -226 -52.5t-263 -17.5q-345 0 -535 177t-190 497q0 162 53.5 302.5t157.5 246.5
q130 136 305 199t426 63q129 0 246 -17t225 -53z" />
    <glyph glyph-name="H" unicode="H" horiz-adv-x="1489" 
d="M287 1421h387l-113 -534h440l115 534h387l-301 -1421h-389l129 602h-442l-127 -602h-387z" />
    <glyph glyph-name="I" unicode="I" horiz-adv-x="678" 
d="M295 1421h379l-303 -1421h-379z" />
    <glyph glyph-name="J" unicode="J" horiz-adv-x="901" 
d="M549 1421h381l-217 -1009q-49 -229 -183.5 -337t-369.5 -108q-83 0 -150.5 13t-124.5 40l80 310q50 -17 89.5 -25t70.5 -8q93 0 152 56.5t83 170.5z" />
    <glyph glyph-name="K" unicode="K" horiz-adv-x="1417" 
d="M289 1421h377l-123 -583l520 583h479l-663 -688l415 -733h-440l-344 684l-145 -684h-379z" />
    <glyph glyph-name="L" unicode="L" horiz-adv-x="1157" 
d="M326 1421h383l-244 -1138h588l-62 -283h-968z" />
    <glyph glyph-name="M" unicode="M" horiz-adv-x="1933" 
d="M281 1421h589l31 -722q1 -23 1.5 -48.5t0.5 -64.5q0 -33 -1.5 -76t-4.5 -96q19 64 47.5 135.5t67.5 155.5l329 716h611l-307 -1421h-351l179 858q14 71 33.5 150t43.5 168h-12l-553 -1176h-350l-51 1176h-17q-24 -138 -40 -228.5t-21 -113.5l-180 -834h-349z" />
    <glyph glyph-name="N" unicode="N" horiz-adv-x="1593" 
d="M285 1421h467l221 -721q30 -96 46 -165t23 -132h17q4 59 16 131t33 168l152 719h346l-303 -1421h-467l-242 795q-17 54 -29 110.5t-18 118.5h-15q-10 -78 -21 -148.5t-24 -132.5l-157 -743h-348z" />
    <glyph glyph-name="O" unicode="O" horiz-adv-x="1593" 
d="M1130 864q0 156 -68 241t-192 85q-87 0 -163.5 -51t-137.5 -150q-50 -81 -81 -196.5t-31 -225.5q0 -150 69 -236.5t189 -86.5q87 0 161 49.5t142 152.5q50 79 81 194t31 224zM895 1454q295 0 461 -161.5t166 -448.5q0 -153 -47 -301.5t-129 -259.5
q-116 -155 -280.5 -236.5t-363.5 -81.5q-297 0 -463.5 163.5t-166.5 453.5q0 152 41.5 293t117.5 245q122 168 287 251t377 83z" />
    <glyph glyph-name="P" unicode="P" horiz-adv-x="1294" 
d="M614 1165l-79 -381h100q137 0 213 56.5t76 156.5q0 82 -57 125t-165 43h-88zM291 1421h420q300 0 441.5 -93.5t141.5 -291.5q0 -244 -163 -384t-449 -140q-35 0 -85.5 1.5t-116.5 4.5l-113 -518h-377z" />
    <glyph glyph-name="Q" unicode="Q" horiz-adv-x="1593" 
d="M1047 35l266 -305h-432l-158 235h-29q-285 0 -453.5 163t-168.5 437q0 163 41 305t118 250q122 168 287 251t377 83q295 0 461 -161.5t166 -448.5q0 -271 -124 -482.5t-351 -326.5zM1130 864q0 156 -68 241t-192 85q-87 0 -163.5 -51t-137.5 -150q-50 -81 -81 -196.5
t-31 -225.5q0 -150 69 -236.5t189 -86.5q87 0 161 49.5t142 152.5q50 79 81 194t31 224z" />
    <glyph glyph-name="R" unicode="R" horiz-adv-x="1360" 
d="M602 1161l-67 -332h135q132 0 204 48.5t72 136.5q0 73 -49.5 110t-146.5 37h-148zM289 1421h536q254 0 382 -88.5t128 -263.5q0 -157 -102 -251t-289 -109q58 -36 90 -84.5t51 -141.5l105 -483h-373l-100 457q-14 60 -51.5 84t-118.5 24h-68l-119 -565h-372z" />
    <glyph glyph-name="S" unicode="S" horiz-adv-x="1247" 
d="M1229 1389l-88 -277q-78 35 -158 52.5t-164 17.5q-127 0 -194.5 -37.5t-67.5 -108.5q0 -77 152 -140q61 -25 96 -42q177 -86 241 -168t64 -209q0 -233 -178 -371.5t-483 -138.5q-129 0 -247.5 19.5t-228.5 58.5l82 293q89 -44 172.5 -66t163.5 -22q146 0 230 48t84 130
q0 103 -223 192q-56 22 -87 35q-121 51 -180 134t-59 200q0 206 165 334.5t433 128.5q149 0 269.5 -16t205.5 -47z" />
    <glyph glyph-name="T" unicode="T" horiz-adv-x="1151" 
d="M180 1421h1100l-59 -274h-363l-244 -1147h-383l244 1147h-352z" />
    <glyph glyph-name="U" unicode="U" horiz-adv-x="1507" 
d="M285 1421h381l-172 -792q-12 -52 -17.5 -102.5t-5.5 -98.5q0 -80 58 -135t143 -55q114 0 181 88t118 317l172 778h366l-182 -884q-62 -300 -224 -437t-454 -137q-269 0 -413 123.5t-144 353.5q0 52 5 100.5t16 92.5z" />
    <glyph glyph-name="V" unicode="V" horiz-adv-x="1442" 
d="M137 1421h375l82 -768q6 -55 9 -109t3 -106q0 -37 -1.5 -74t-4.5 -73h10q20 70 52 147t77 162l430 821h400l-789 -1421h-456z" />
    <glyph glyph-name="W" unicode="W" horiz-adv-x="2023" 
d="M160 1421h356l-8 -635q0 -62 -9 -192t-26 -305h14q29 98 55 180.5t46 136.5l321 815h465l-10 -775q-2 -114 -6 -199.5t-10 -157.5h14q17 69 42.5 149t68.5 199l284 784h375l-600 -1421h-465l12 751q2 113 6.5 214.5t12.5 193.5h-17q-31 -99 -58.5 -179.5t-55.5 -154.5
l-312 -825h-473z" />
    <glyph glyph-name="X" unicode="X" horiz-adv-x="1417" 
d="M188 1421h404l92 -262q1 -2 3 -8q30 -90 52 -174l344 444h445l-559 -667l309 -754h-404l-126 344q-11 33 -25 78.5t-29 97.5l-379 -520h-462l620 768z" />
    <glyph glyph-name="Y" unicode="Y" horiz-adv-x="1384" 
d="M96 1421h414l133 -413q2 -6 15.5 -60l25.5 -102q34 57 62 101.5t42 64.5l299 409h443l-703 -884l-114 -537h-377l106 537z" />
    <glyph glyph-name="Z" unicode="Z" horiz-adv-x="1280" 
d="M270 1421h1096l-68 -286l-876 -861h698l-67 -274h-1108l67 332l826 819h-625z" />
    <glyph glyph-name="bracketleft" unicode="[" horiz-adv-x="901" 
d="M422 1563h532l-47 -224h-229l-295 -1390h227l-45 -219h-532z" />
    <glyph glyph-name="backslash" unicode="\" horiz-adv-x="573" 
d="M6 1497h201l346 -1497h-201z" />
    <glyph glyph-name="bracketright" unicode="]" horiz-adv-x="901" 
d="M305 1563h533l-389 -1833h-533l47 223h227l295 1390h-227z" />
    <glyph glyph-name="asciicircum" unicode="^" horiz-adv-x="2048" 
d="M879 1462h288l465 -563h-264l-344 342l-346 -342h-264z" />
    <glyph glyph-name="underscore" unicode="_" 
d="M0 -244h1024v-239h-1024v239z" />
    <glyph glyph-name="grave" unicode="`" 
d="M352 1563h271l165 -371h-141z" />
    <glyph glyph-name="a" unicode="a" horiz-adv-x="1251" 
d="M758 481q-20 2 -41.5 3t-63.5 1q-146 0 -222.5 -41.5t-76.5 -121.5q0 -53 37.5 -86t97.5 -33q101 0 175.5 76t93.5 202zM1116 565l-61 -299q-20 -92 -29.5 -151t-13.5 -115h-305l20 160q-61 -90 -153 -136.5t-212 -46.5q-160 0 -256 86t-96 228q0 181 163 282t458 101
q35 0 77 -2.5t93 -7.5q1 6 1.5 13.5t0.5 20.5q0 81 -52 122.5t-151 41.5q-92 0 -178 -20t-166 -60l43 246q87 31 173.5 46.5t176.5 15.5q231 0 360.5 -89.5t129.5 -246.5q0 -36 -6 -84t-17 -105z" />
    <glyph glyph-name="b" unicode="b" horiz-adv-x="1403" 
d="M938 598q0 97 -49.5 154t-132.5 57q-112 0 -194.5 -102t-82.5 -242q0 -102 53 -162.5t142 -60.5q109 0 186.5 104t77.5 252zM326 1536h364l-135 -616q75 82 162 122.5t188 40.5q188 0 299 -127t111 -344q0 -284 -155 -462.5t-402 -178.5q-125 0 -217.5 60.5t-153.5 181.5
l-51 -213h-332z" />
    <glyph glyph-name="c" unicode="c" horiz-adv-x="1020" 
d="M1047 1014l-84 -254q-59 27 -115.5 41t-110.5 14q-146 0 -235.5 -83.5t-89.5 -219.5q0 -119 73.5 -188.5t198.5 -69.5q50 0 101.5 12t107.5 37l-43 -278q-84 -22 -158.5 -32.5t-142.5 -10.5q-239 0 -380.5 133.5t-141.5 355.5q0 275 183 443.5t484 168.5q90 0 178 -17
t175 -52z" />
    <glyph glyph-name="d" unicode="d" horiz-adv-x="1403" 
d="M881 594q0 96 -55 155.5t-142 59.5q-110 0 -187 -104.5t-77 -258.5q0 -91 50 -147.5t132 -56.5q114 0 196.5 103t82.5 249zM1092 1536h362l-326 -1536h-327l39 176q-77 -102 -174 -154.5t-211 -52.5q-189 0 -300.5 126.5t-111.5 342.5q0 285 155.5 464t403.5 179
q116 0 204.5 -52.5t141.5 -154.5z" />
    <glyph glyph-name="e" unicode="e" horiz-adv-x="1251" 
d="M1126 432h-755q10 -116 76 -171.5t194 -55.5q87 0 178.5 20.5t179.5 59.5l-41 -260q-94 -30 -192 -45t-197 -15q-244 0 -386 133t-142 361q0 128 51 252.5t137 210.5q84 82 202.5 123.5t266.5 41.5q218 0 335.5 -118t117.5 -336q0 -45 -6 -95.5t-19 -105.5zM845 635
q3 20 4 30.5t1 18.5q0 88 -50 139t-134 51q-86 0 -152 -63.5t-96 -175.5h427z" />
    <glyph glyph-name="f" unicode="f" horiz-adv-x="905" 
d="M1057 1516l-70 -236q-31 14 -56.5 20.5t-49.5 6.5q-57 0 -99.5 -32t-54.5 -83l-35 -139h266l-53 -256h-268l-168 -797h-365l170 797h-219l56 256h217l37 166q37 164 154.5 250.5t303.5 86.5q57 0 115.5 -10t118.5 -30z" />
    <glyph glyph-name="g" unicode="g" horiz-adv-x="1403" 
d="M881 594q0 96 -55 155.5t-142 59.5q-110 0 -187 -104.5t-77 -258.5q0 -91 50 -147.5t132 -56.5q114 0 196.5 103t82.5 249zM987 1053h365l-224 -1051q-47 -230 -207.5 -343.5t-437.5 -113.5q-101 0 -204 18.5t-209 55.5l67 272q70 -44 152.5 -67t177.5 -23q171 0 262 98
t121 314q-81 -107 -178.5 -160t-214.5 -53q-187 0 -298.5 125t-111.5 336q0 113 30.5 214t90.5 185q75 108 186.5 164.5t247.5 56.5q116 0 204.5 -52.5t141.5 -154.5z" />
    <glyph glyph-name="h" unicode="h" horiz-adv-x="1374" 
d="M315 1536h367l-129 -612q80 78 167 116.5t185 38.5q164 0 254 -96.5t90 -271.5q0 -53 -9.5 -126t-29.5 -165l-88 -420h-368l112 528q6 30 9.5 56t3.5 49q0 74 -35.5 114.5t-98.5 40.5q-109 0 -182.5 -86t-109.5 -258l-95 -444h-368z" />
    <glyph glyph-name="i" unicode="i" horiz-adv-x="678" 
d="M246 1053h358l-223 -1053h-358zM340 1497h360l-57 -266h-358z" />
    <glyph glyph-name="j" unicode="j" horiz-adv-x="678" 
d="M252 1053h373l-226 -1065q-47 -228 -153.5 -329t-296.5 -101q-46 0 -98 9.5t-115 29.5l47 222q25 -8 50 -13t46 -5q54 0 89.5 40t51.5 120zM344 1497h373l-55 -270h-373z" />
    <glyph glyph-name="k" unicode="k" horiz-adv-x="1237" 
d="M332 1536h364l-196 -922l364 439h414l-434 -490l266 -563h-399l-226 549l-114 -549h-365z" />
    <glyph glyph-name="l" unicode="l" horiz-adv-x="678" 
d="M332 1536h364l-325 -1536h-365z" />
    <glyph glyph-name="m" unicode="m" horiz-adv-x="1958" 
d="M1817 605l-131 -605h-351l111 529q9 41 13.5 73.5t4.5 56.5q0 58 -29.5 91.5t-80.5 33.5q-42 0 -78 -18t-64 -53q-51 -65 -80 -220q-6 -32 -10 -49l-94 -444h-373l113 528q8 37 12 73t4 71q0 54 -28.5 83t-81.5 29q-82 0 -133.5 -62.5t-79.5 -197.5l-113 -524h-373
l226 1063h315l-41 -193q91 109 179.5 159t189.5 50q112 0 184 -51.5t105 -155.5q89 111 177.5 159t198.5 48q149 0 235.5 -89t86.5 -242q0 -36 -3.5 -71.5t-10.5 -71.5z" />
    <glyph glyph-name="n" unicode="n" horiz-adv-x="1374" 
d="M1204 420l-90 -420h-366l110 528q6 30 9 56t3 49q0 74 -35 114.5t-98 40.5q-109 0 -181.5 -85.5t-109.5 -258.5l-94 -444h-368l225 1063h330l-41 -189q89 102 190 153.5t211 51.5q164 0 254 -96.5t90 -271.5q0 -53 -9.5 -126t-29.5 -165z" />
    <glyph glyph-name="o" unicode="o" horiz-adv-x="1366" 
d="M893 602q0 109 -53.5 173.5t-143.5 64.5q-116 0 -199 -112t-83 -273q0 -105 56.5 -171.5t145.5 -66.5q115 0 196 111t81 274zM717 1081q255 0 401 -132t146 -363q0 -277 -187 -447t-495 -170q-252 0 -396.5 129t-144.5 353q0 288 182.5 459t493.5 171z" />
    <glyph glyph-name="p" unicode="p" horiz-adv-x="1403" 
d="M410 176l-129 -604h-369l317 1491h330l-41 -186q77 102 174 154t211 52q189 0 300.5 -127t111.5 -344q0 -285 -155 -463t-402 -178q-116 0 -205.5 53t-142.5 152zM938 598q0 97 -49.5 154t-132.5 57q-112 0 -194.5 -102t-82.5 -242q0 -102 53 -162.5t142 -60.5
q109 0 186.5 104t77.5 252z" />
    <glyph glyph-name="q" unicode="q" horiz-adv-x="1403" 
d="M879 594q0 96 -55 156.5t-142 60.5q-109 0 -185.5 -104.5t-76.5 -257.5q0 -93 49.5 -149t130.5 -56q114 0 196.5 102t82.5 248zM1020 1053h334l-312 -1479h-362l123 559q-74 -83 -160.5 -123.5t-189.5 -40.5q-189 0 -300.5 127t-111.5 342q0 285 155.5 464t403.5 179
q125 0 217 -60t154 -181z" />
    <glyph glyph-name="r" unicode="r" horiz-adv-x="930" 
d="M993 1059l-82 -307q-51 14 -90.5 21t-68.5 7q-117 0 -183 -73t-106 -252l-98 -455h-369l215 1057h334l-39 -193q80 115 162 166t186 51q32 0 66 -5.5t73 -16.5z" />
    <glyph glyph-name="s" unicode="s" 
d="M979 1020l-80 -232q-100 34 -162.5 47t-115.5 13q-77 0 -120.5 -26t-43.5 -70q0 -57 132 -105q54 -20 85 -33q112 -47 163.5 -109t51.5 -151q0 -173 -135.5 -278t-362.5 -105q-112 0 -216.5 17t-203.5 51l76 254q74 -36 147 -54t148 -18q89 0 136.5 24.5t47.5 69.5
q0 66 -123 114q-20 7 -30 11q-154 63 -209 128t-55 169q0 153 137 249.5t362 96.5q85 0 177 -15.5t194 -47.5z" />
    <glyph glyph-name="t" unicode="t" horiz-adv-x="905" 
d="M737 1405l-75 -352h260l-54 -252h-260l-78 -367q-7 -31 -10.5 -55t-3.5 -37q0 -58 27 -83.5t88 -25.5q23 0 54 5.5t67 15.5l-54 -252q-67 -11 -116.5 -16.5t-85.5 -5.5q-165 0 -254.5 83.5t-89.5 235.5q0 26 2.5 51.5t7.5 53.5l84 397h-215l53 252h215l53 250z" />
    <glyph glyph-name="u" unicode="u" horiz-adv-x="1374" 
d="M188 1053h369l-111 -529q-6 -27 -9 -53.5t-3 -50.5q0 -77 36 -117.5t103 -40.5q103 0 176 89t109 257l94 445h369l-225 -1053h-330l41 178q-90 -102 -190.5 -153.5t-210.5 -51.5q-165 0 -255 96t-90 271q0 54 10 128.5t29 164.5z" />
    <glyph glyph-name="v" unicode="v" horiz-adv-x="1241" 
d="M76 1053h364l82 -758l375 758h385l-618 -1053h-412z" />
    <glyph glyph-name="w" unicode="w" horiz-adv-x="1919" 
d="M86 1053h360l11 -506q0 -58 -0.5 -128t-1.5 -149q29 95 104 250l6 12l250 521h432l13 -533v-250q16 59 42 125.5t64 147.5l240 510h364l-555 -1053h-418l-18 473q-3 82 -3.5 122.5t-0.5 76.5q0 50 0.5 76t1.5 46q-32 -81 -57 -141t-41 -94l-265 -559h-428z" />
    <glyph glyph-name="x" unicode="x" horiz-adv-x="1241" 
d="M123 1053h391l113 -310l233 310h420l-442 -506l239 -547h-389l-125 332l-241 -332h-439l465 561z" />
    <glyph glyph-name="y" unicode="y" horiz-adv-x="1241" 
d="M72 1053h366l64 -424v-4q24 -164 33 -281q28 68 54 125t48 98l262 486h383l-676 -1159q-115 -197 -223 -270t-270 -73q-60 0 -129 13.5t-152 40.5l86 256q42 -19 80 -28t74 -9q83 0 142 42t93 126z" />
    <glyph glyph-name="z" unicode="z" horiz-adv-x="1071" 
d="M182 1053h887l-59 -281l-566 -506h478l-58 -266h-925l59 281l565 512h-436z" />
    <glyph glyph-name="braceleft" unicode="{" 
d="M893 1477v-242q-7 0 -21 1t-20 1q-98 0 -132 -35.5t-34 -146.5v-240q0 -140 -46 -200t-165 -85q120 -24 165.5 -82.5t45.5 -199.5v-242q0 -110 33.5 -145t130.5 -35q7 0 21.5 1t21.5 1v-242q-15 0 -42 -1t-40 -1q-108 0 -179.5 12t-119.5 37q-59 32 -82.5 88.5
t-23.5 192.5v256q0 133 -49.5 187.5t-168.5 54.5q-4 0 -17 -1t-19 -1v241q6 0 18 -1t18 -1q118 0 168 55.5t50 188.5v254q0 136 24 193.5t82 89.5q48 25 120.5 37t180.5 12q12 0 38.5 -1t41.5 -1z" />
    <glyph glyph-name="bar" unicode="|" 
d="M393 1565h240v-2048h-240v2048z" />
    <glyph glyph-name="braceright" unicode="}" 
d="M133 1477q15 0 41.5 1t38.5 1q108 0 180 -12t121 -37q58 -32 82.5 -89.5t24.5 -193.5v-254q0 -134 49 -189t168 -55q6 0 18 1t18 1v-241q-6 0 -18 1t-18 1q-119 0 -168 -55t-49 -187v-256q0 -137 -24.5 -194.5t-82.5 -88.5q-45 -24 -113.5 -35.5t-177.5 -11.5
q-14 0 -44 1t-46 1v242q9 0 23 -1t20 -1q97 0 130.5 34.5t33.5 145.5v242q0 140 46 199t165 83q-120 25 -165.5 84t-45.5 201v240q0 111 -33.5 146.5t-126.5 35.5q-7 0 -22.5 -1t-24.5 -1v242z" />
    <glyph glyph-name="asciitilde" unicode="~" horiz-adv-x="1706" 
d="M1530 819v-254q-101 -69 -194 -103t-183 -34q-45 0 -89 7.5t-83 21.5q-13 4 -38 13q-255 89 -382 89q-84 0 -175.5 -37.5t-207.5 -120.5v254q112 73 207.5 108.5t179.5 35.5q63 0 126.5 -12t169.5 -46q16 -5 51 -17q159 -56 247 -56q84 0 173.5 36t197.5 115z" />
    <glyph glyph-name="Adieresis" unicode="&#xc4;" horiz-adv-x="1532" 
d="M903 1143l-315 -572h383zM713 1421h471l229 -1421h-377l-37 303h-557l-170 -303h-399zM1065 1882h249l-57 -270h-250zM702 1882h250l-57 -270h-250z" />
    <glyph glyph-name="Aring" unicode="&#xc5;" horiz-adv-x="1532" 
d="M903 1143l-315 -572h383zM713 1421h471l229 -1421h-377l-37 303h-557l-170 -303h-399zM952 1907q-52 0 -87.5 -35t-35.5 -88q0 -52 35.5 -87.5t87.5 -35.5t86.5 35.5t34.5 87.5t-35 87.5t-86 35.5zM950 2056q114 0 193.5 -79t79.5 -191q0 -114 -79 -193.5t-194 -79.5
q-114 0 -192 79t-78 194q0 114 78.5 192t191.5 78z" />
    <glyph glyph-name="Ccedilla" unicode="&#xc7;" horiz-adv-x="1356" 
d="M1442 1370l-94 -289q-75 47 -158.5 70t-179.5 23q-257 0 -401 -145.5t-144 -403.5q0 -168 109 -266.5t296 -98.5q83 0 167.5 22t172.5 66l-36 -328q-104 -26 -201 -39.5t-189 -13.5q-335 0 -522.5 177t-187.5 491q0 162 58.5 313t162.5 258q125 129 284.5 188.5
t378.5 59.5q114 0 234 -21t250 -63zM653 0h115l-33 -92q115 -2 174 -46t59 -128q0 -111 -72.5 -171.5t-205.5 -60.5q-52 0 -124 14.5t-171 45.5l51 133q64 -26 124 -39.5t111 -13.5q45 0 71 20t26 55q0 37 -36 52.5t-122 15.5h-41z" />
    <glyph glyph-name="Eacute" unicode="&#xc9;" horiz-adv-x="1237" 
d="M287 1421h1001l-57 -264h-623l-59 -285h586l-54 -256h-587l-74 -350h645l-57 -266h-1024zM838 1934h311l-391 -371h-152z" />
    <glyph glyph-name="Ntilde" unicode="&#xd1;" horiz-adv-x="1593" 
d="M285 1421h467l221 -721q30 -96 46 -165t23 -132h17q4 59 16 131t33 168l152 719h346l-303 -1421h-467l-242 795q-17 54 -29 110.5t-18 118.5h-15q-10 -78 -21 -148.5t-24 -132.5l-157 -743h-348zM1227 1901h118q-32 -133 -88.5 -194.5t-144.5 -61.5q-23 0 -44.5 3.5
t-43.5 10.5l-64 21q-17 6 -32.5 9t-30.5 3q-38 0 -64 -25t-36 -71h-121q31 131 89.5 196.5t145.5 65.5q20 0 45 -4.5t49 -12.5l64 -20q17 -6 31 -9t26 -3q37 0 61 22t40 70z" />
    <glyph glyph-name="Odieresis" unicode="&#xd6;" horiz-adv-x="1593" 
d="M1130 864q0 156 -68 241t-192 85q-87 0 -163.5 -51t-137.5 -150q-50 -81 -81 -196.5t-31 -225.5q0 -150 69 -236.5t189 -86.5q87 0 161 49.5t142 152.5q50 79 81 194t31 224zM895 1454q295 0 461 -161.5t166 -448.5q0 -153 -47 -301.5t-129 -259.5
q-116 -155 -280.5 -236.5t-363.5 -81.5q-297 0 -463.5 163.5t-166.5 453.5q0 152 41.5 293t117.5 245q122 168 287 251t377 83zM1096 1882h249l-57 -270h-250zM733 1882h250l-57 -270h-250z" />
    <glyph glyph-name="Udieresis" unicode="&#xdc;" horiz-adv-x="1507" 
d="M285 1421h381l-172 -792q-12 -52 -17.5 -102.5t-5.5 -98.5q0 -80 58 -135t143 -55q114 0 181 88t118 317l172 778h366l-182 -884q-62 -300 -224 -437t-454 -137q-269 0 -413 123.5t-144 353.5q0 52 5 100.5t16 92.5zM1053 1882h249l-57 -270h-250zM690 1882h250l-57 -270
h-250z" />
    <glyph glyph-name="aacute" unicode="&#xe1;" horiz-adv-x="1251" 
d="M758 481q-20 2 -41.5 3t-63.5 1q-146 0 -222.5 -41.5t-76.5 -121.5q0 -53 37.5 -86t97.5 -33q101 0 175.5 76t93.5 202zM1116 565l-61 -299q-20 -92 -29.5 -151t-13.5 -115h-305l20 160q-61 -90 -153 -136.5t-212 -46.5q-160 0 -256 86t-96 228q0 181 163 282t458 101
q35 0 77 -2.5t93 -7.5q1 6 1.5 13.5t0.5 20.5q0 81 -52 122.5t-151 41.5q-92 0 -178 -20t-166 -60l43 246q87 31 173.5 46.5t176.5 15.5q231 0 360.5 -89.5t129.5 -246.5q0 -36 -6 -84t-17 -105zM783 1563h311l-391 -371h-152z" />
    <glyph glyph-name="agrave" unicode="&#xe0;" horiz-adv-x="1251" 
d="M758 481q-20 2 -41.5 3t-63.5 1q-146 0 -222.5 -41.5t-76.5 -121.5q0 -53 37.5 -86t97.5 -33q101 0 175.5 76t93.5 202zM1116 565l-61 -299q-20 -92 -29.5 -151t-13.5 -115h-305l20 160q-61 -90 -153 -136.5t-212 -46.5q-160 0 -256 86t-96 228q0 181 163 282t458 101
q35 0 77 -2.5t93 -7.5q1 6 1.5 13.5t0.5 20.5q0 81 -52 122.5t-151 41.5q-92 0 -178 -20t-166 -60l43 246q87 31 173.5 46.5t176.5 15.5q231 0 360.5 -89.5t129.5 -246.5q0 -36 -6 -84t-17 -105zM467 1563h271l165 -371h-141z" />
    <glyph glyph-name="acircumflex" unicode="&#xe2;" horiz-adv-x="1251" 
d="M758 481q-20 2 -41.5 3t-63.5 1q-146 0 -222.5 -41.5t-76.5 -121.5q0 -53 37.5 -86t97.5 -33q101 0 175.5 76t93.5 202zM1116 565l-61 -299q-20 -92 -29.5 -151t-13.5 -115h-305l20 160q-61 -90 -153 -136.5t-212 -46.5q-160 0 -256 86t-96 228q0 181 163 282t458 101
q35 0 77 -2.5t93 -7.5q1 6 1.5 13.5t0.5 20.5q0 81 -52 122.5t-151 41.5q-92 0 -178 -20t-166 -60l43 246q87 31 173.5 46.5t176.5 15.5q231 0 360.5 -89.5t129.5 -246.5q0 -36 -6 -84t-17 -105zM670 1563h254l125 -371h-141l-125 199l-222 -199h-153z" />
    <glyph glyph-name="adieresis" unicode="&#xe4;" horiz-adv-x="1251" 
d="M758 481q-20 2 -41.5 3t-63.5 1q-146 0 -222.5 -41.5t-76.5 -121.5q0 -53 37.5 -86t97.5 -33q101 0 175.5 76t93.5 202zM1116 565l-61 -299q-20 -92 -29.5 -151t-13.5 -115h-305l20 160q-61 -90 -153 -136.5t-212 -46.5q-160 0 -256 86t-96 228q0 181 163 282t458 101
q35 0 77 -2.5t93 -7.5q1 6 1.5 13.5t0.5 20.5q0 81 -52 122.5t-151 41.5q-92 0 -178 -20t-166 -60l43 246q87 31 173.5 46.5t176.5 15.5q231 0 360.5 -89.5t129.5 -246.5q0 -36 -6 -84t-17 -105zM863 1511h249l-57 -270h-250zM500 1511h250l-57 -270h-250z" />
    <glyph glyph-name="atilde" unicode="&#xe3;" horiz-adv-x="1251" 
d="M758 481q-20 2 -41.5 3t-63.5 1q-146 0 -222.5 -41.5t-76.5 -121.5q0 -53 37.5 -86t97.5 -33q101 0 175.5 76t93.5 202zM1116 565l-61 -299q-20 -92 -29.5 -151t-13.5 -115h-305l20 160q-61 -90 -153 -136.5t-212 -46.5q-160 0 -256 86t-96 228q0 181 163 282t458 101
q35 0 77 -2.5t93 -7.5q1 6 1.5 13.5t0.5 20.5q0 81 -52 122.5t-151 41.5q-92 0 -178 -20t-166 -60l43 246q87 31 173.5 46.5t176.5 15.5q231 0 360.5 -89.5t129.5 -246.5q0 -36 -6 -84t-17 -105zM994 1530h118q-32 -133 -88.5 -194.5t-144.5 -61.5q-23 0 -44.5 3.5
t-43.5 10.5l-64 21q-17 6 -32.5 9t-30.5 3q-38 0 -64 -25t-36 -71h-121q31 131 89.5 196.5t145.5 65.5q20 0 45 -4.5t49 -12.5l64 -20q17 -6 31 -9t26 -3q37 0 61 22t40 70z" />
    <glyph glyph-name="aring" unicode="&#xe5;" horiz-adv-x="1251" 
d="M758 481q-20 2 -41.5 3t-63.5 1q-146 0 -222.5 -41.5t-76.5 -121.5q0 -53 37.5 -86t97.5 -33q101 0 175.5 76t93.5 202zM1116 565l-61 -299q-20 -92 -29.5 -151t-13.5 -115h-305l20 160q-61 -90 -153 -136.5t-212 -46.5q-160 0 -256 86t-96 228q0 181 163 282t458 101
q35 0 77 -2.5t93 -7.5q1 6 1.5 13.5t0.5 20.5q0 81 -52 122.5t-151 41.5q-92 0 -178 -20t-166 -60l43 246q87 31 173.5 46.5t176.5 15.5q231 0 360.5 -89.5t129.5 -246.5q0 -36 -6 -84t-17 -105zM752 1595q-53 0 -88 -35.5t-35 -89.5q0 -51 35 -85.5t88 -34.5q52 0 87 35
t35 85q0 52 -35.5 88.5t-86.5 36.5zM752 1743q113 0 192.5 -79t79.5 -191q0 -114 -78.5 -192.5t-193.5 -78.5t-194 78t-79 193q0 113 79.5 191.5t193.5 78.5z" />
    <glyph glyph-name="ccedilla" unicode="&#xe7;" horiz-adv-x="1020" 
d="M1047 1014l-84 -254q-59 27 -115.5 41t-110.5 14q-146 0 -235.5 -83.5t-89.5 -219.5q0 -119 73.5 -188.5t198.5 -69.5q50 0 101.5 12t107.5 37l-43 -278q-84 -22 -158.5 -32.5t-142.5 -10.5q-239 0 -380.5 133.5t-141.5 355.5q0 275 183 443.5t484 168.5q90 0 178 -17
t175 -52zM451 0h115l-33 -92q115 -2 174 -46t59 -128q0 -111 -72.5 -171.5t-205.5 -60.5q-52 0 -124 14.5t-171 45.5l51 133q64 -26 124 -39.5t111 -13.5q45 0 71 20t26 55q0 37 -36 52.5t-122 15.5h-41z" />
    <glyph glyph-name="eacute" unicode="&#xe9;" horiz-adv-x="1251" 
d="M1126 432h-755q10 -116 76 -171.5t194 -55.5q87 0 178.5 20.5t179.5 59.5l-41 -260q-94 -30 -192 -45t-197 -15q-244 0 -386 133t-142 361q0 128 51 252.5t137 210.5q84 82 202.5 123.5t266.5 41.5q218 0 335.5 -118t117.5 -336q0 -45 -6 -95.5t-19 -105.5zM845 635
q3 20 4 30.5t1 18.5q0 88 -50 139t-134 51q-86 0 -152 -63.5t-96 -175.5h427zM783 1563h311l-391 -371h-152z" />
    <glyph glyph-name="egrave" unicode="&#xe8;" horiz-adv-x="1251" 
d="M1126 432h-755q10 -116 76 -171.5t194 -55.5q87 0 178.5 20.5t179.5 59.5l-41 -260q-94 -30 -192 -45t-197 -15q-244 0 -386 133t-142 361q0 128 51 252.5t137 210.5q84 82 202.5 123.5t266.5 41.5q218 0 335.5 -118t117.5 -336q0 -45 -6 -95.5t-19 -105.5zM845 635
q3 20 4 30.5t1 18.5q0 88 -50 139t-134 51q-86 0 -152 -63.5t-96 -175.5h427zM467 1563h271l165 -371h-141z" />
    <glyph glyph-name="ecircumflex" unicode="&#xea;" horiz-adv-x="1251" 
d="M1126 432h-755q10 -116 76 -171.5t194 -55.5q87 0 178.5 20.5t179.5 59.5l-41 -260q-94 -30 -192 -45t-197 -15q-244 0 -386 133t-142 361q0 128 51 252.5t137 210.5q84 82 202.5 123.5t266.5 41.5q218 0 335.5 -118t117.5 -336q0 -45 -6 -95.5t-19 -105.5zM845 635
q3 20 4 30.5t1 18.5q0 88 -50 139t-134 51q-86 0 -152 -63.5t-96 -175.5h427zM670 1563h254l125 -371h-141l-125 199l-222 -199h-153z" />
    <glyph glyph-name="edieresis" unicode="&#xeb;" horiz-adv-x="1251" 
d="M1126 432h-755q10 -116 76 -171.5t194 -55.5q87 0 178.5 20.5t179.5 59.5l-41 -260q-94 -30 -192 -45t-197 -15q-244 0 -386 133t-142 361q0 128 51 252.5t137 210.5q84 82 202.5 123.5t266.5 41.5q218 0 335.5 -118t117.5 -336q0 -45 -6 -95.5t-19 -105.5zM845 635
q3 20 4 30.5t1 18.5q0 88 -50 139t-134 51q-86 0 -152 -63.5t-96 -175.5h427zM863 1511h249l-57 -270h-250zM500 1511h250l-57 -270h-250z" />
    <glyph glyph-name="iacute" unicode="&#xed;" horiz-adv-x="678" 
d="M246 1053h358l-223 -1053h-358zM496 1563h311l-391 -371h-152z" />
    <glyph glyph-name="igrave" unicode="&#xec;" horiz-adv-x="678" 
d="M246 1053h358l-223 -1053h-358zM180 1563h271l165 -371h-141z" />
    <glyph glyph-name="icircumflex" unicode="&#xee;" horiz-adv-x="678" 
d="M246 1053h358l-223 -1053h-358zM383 1563h254l125 -371h-141l-125 199l-222 -199h-153z" />
    <glyph glyph-name="idieresis" unicode="&#xef;" horiz-adv-x="678" 
d="M246 1053h358l-223 -1053h-358zM576 1511h249l-57 -270h-250zM213 1511h250l-57 -270h-250z" />
    <glyph glyph-name="ntilde" unicode="&#xf1;" horiz-adv-x="1374" 
d="M1204 420l-90 -420h-366l110 528q6 30 9 56t3 49q0 74 -35 114.5t-98 40.5q-109 0 -181.5 -85.5t-109.5 -258.5l-94 -444h-368l225 1063h330l-41 -189q89 102 190 153.5t211 51.5q164 0 254 -96.5t90 -271.5q0 -53 -9.5 -126t-29.5 -165zM1055 1530h118
q-32 -133 -88.5 -194.5t-144.5 -61.5q-23 0 -44.5 3.5t-43.5 10.5l-64 21q-17 6 -32.5 9t-30.5 3q-38 0 -64 -25t-36 -71h-121q31 131 89.5 196.5t145.5 65.5q20 0 45 -4.5t49 -12.5l64 -20q17 -6 31 -9t26 -3q37 0 61 22t40 70z" />
    <glyph glyph-name="oacute" unicode="&#xf3;" horiz-adv-x="1366" 
d="M893 602q0 109 -53.5 173.5t-143.5 64.5q-116 0 -199 -112t-83 -273q0 -105 56.5 -171.5t145.5 -66.5q115 0 196 111t81 274zM717 1081q255 0 401 -132t146 -363q0 -277 -187 -447t-495 -170q-252 0 -396.5 129t-144.5 353q0 288 182.5 459t493.5 171zM840 1563h311
l-391 -371h-152z" />
    <glyph glyph-name="ograve" unicode="&#xf2;" horiz-adv-x="1366" 
d="M893 602q0 109 -53.5 173.5t-143.5 64.5q-116 0 -199 -112t-83 -273q0 -105 56.5 -171.5t145.5 -66.5q115 0 196 111t81 274zM717 1081q255 0 401 -132t146 -363q0 -277 -187 -447t-495 -170q-252 0 -396.5 129t-144.5 353q0 288 182.5 459t493.5 171zM524 1563h271
l165 -371h-141z" />
    <glyph glyph-name="ocircumflex" unicode="&#xf4;" horiz-adv-x="1366" 
d="M893 602q0 109 -53.5 173.5t-143.5 64.5q-116 0 -199 -112t-83 -273q0 -105 56.5 -171.5t145.5 -66.5q115 0 196 111t81 274zM717 1081q255 0 401 -132t146 -363q0 -277 -187 -447t-495 -170q-252 0 -396.5 129t-144.5 353q0 288 182.5 459t493.5 171zM727 1563h254
l125 -371h-141l-125 199l-222 -199h-153z" />
    <glyph glyph-name="odieresis" unicode="&#xf6;" horiz-adv-x="1366" 
d="M893 602q0 109 -53.5 173.5t-143.5 64.5q-116 0 -199 -112t-83 -273q0 -105 56.5 -171.5t145.5 -66.5q115 0 196 111t81 274zM717 1081q255 0 401 -132t146 -363q0 -277 -187 -447t-495 -170q-252 0 -396.5 129t-144.5 353q0 288 182.5 459t493.5 171zM920 1511h249
l-57 -270h-250zM557 1511h250l-57 -270h-250z" />
    <glyph glyph-name="otilde" unicode="&#xf5;" horiz-adv-x="1366" 
d="M893 602q0 109 -53.5 173.5t-143.5 64.5q-116 0 -199 -112t-83 -273q0 -105 56.5 -171.5t145.5 -66.5q115 0 196 111t81 274zM717 1081q255 0 401 -132t146 -363q0 -277 -187 -447t-495 -170q-252 0 -396.5 129t-144.5 353q0 288 182.5 459t493.5 171zM1051 1530h118
q-32 -133 -88.5 -194.5t-144.5 -61.5q-23 0 -44.5 3.5t-43.5 10.5l-64 21q-17 6 -32.5 9t-30.5 3q-38 0 -64 -25t-36 -71h-121q31 131 89.5 196.5t145.5 65.5q20 0 45 -4.5t49 -12.5l64 -20q17 -6 31 -9t26 -3q37 0 61 22t40 70z" />
    <glyph glyph-name="uacute" unicode="&#xfa;" horiz-adv-x="1374" 
d="M188 1053h369l-111 -529q-6 -27 -9 -53.5t-3 -50.5q0 -77 36 -117.5t103 -40.5q103 0 176 89t109 257l94 445h369l-225 -1053h-330l41 178q-90 -102 -190.5 -153.5t-210.5 -51.5q-165 0 -255 96t-90 271q0 54 10 128.5t29 164.5zM824 1563h311l-391 -371h-152z" />
    <glyph glyph-name="ugrave" unicode="&#xf9;" horiz-adv-x="1374" 
d="M188 1053h369l-111 -529q-6 -27 -9 -53.5t-3 -50.5q0 -77 36 -117.5t103 -40.5q103 0 176 89t109 257l94 445h369l-225 -1053h-330l41 178q-90 -102 -190.5 -153.5t-210.5 -51.5q-165 0 -255 96t-90 271q0 54 10 128.5t29 164.5zM508 1563h271l165 -371h-141z" />
    <glyph glyph-name="ucircumflex" unicode="&#xfb;" horiz-adv-x="1374" 
d="M188 1053h369l-111 -529q-6 -27 -9 -53.5t-3 -50.5q0 -77 36 -117.5t103 -40.5q103 0 176 89t109 257l94 445h369l-225 -1053h-330l41 178q-90 -102 -190.5 -153.5t-210.5 -51.5q-165 0 -255 96t-90 271q0 54 10 128.5t29 164.5zM711 1563h254l125 -371h-141l-125 199
l-222 -199h-153z" />
    <glyph glyph-name="udieresis" unicode="&#xfc;" horiz-adv-x="1374" 
d="M188 1053h369l-111 -529q-6 -27 -9 -53.5t-3 -50.5q0 -77 36 -117.5t103 -40.5q103 0 176 89t109 257l94 445h369l-225 -1053h-330l41 178q-90 -102 -190.5 -153.5t-210.5 -51.5q-165 0 -255 96t-90 271q0 54 10 128.5t29 164.5zM904 1511h249l-57 -270h-250zM541 1511
h250l-57 -270h-250z" />
    <glyph glyph-name="dagger" unicode="&#x2020;" 
d="M506 1421h323l-73 -350h331l-57 -252h-328l-229 -1081h-326l230 1081h-334l53 252h334z" />
    <glyph glyph-name="degree" unicode="&#xb0;" horiz-adv-x="674" 
d="M338 1321q-69 0 -117.5 -48t-48.5 -116q0 -70 48 -118t118 -48q68 0 116 49t48 117t-48 116t-116 48zM338 1466q129 0 220 -91t91 -220q0 -128 -91.5 -219.5t-221.5 -91.5q-129 0 -219 90.5t-90 220.5q0 131 90.5 221t220.5 90z" />
    <glyph glyph-name="cent" unicode="&#xa2;" horiz-adv-x="1262" 
d="M745 815q-124 -15 -198 -96.5t-74 -202.5q0 -77 29.5 -136.5t81.5 -86.5zM901 1327h143l-88 -264q44 -10 81 -22t71 -27l-84 -254q-51 22 -85 34t-62 17l-168 -557h24q57 0 112.5 12.5t108.5 36.5l-43 -278q-59 -18 -128 -28.5t-150 -15.5l-90 -270h-142l84 277
q-185 38 -291 167t-106 316q0 276 184.5 444t491.5 168q24 0 36.5 -0.5t22.5 -1.5z" />
    <glyph glyph-name="sterling" unicode="&#xa3;" horiz-adv-x="1262" 
d="M1321 1403l-76 -254q-57 25 -108 37t-97 12q-136 0 -209 -82.5t-106 -275.5h307l-37 -176h-307l-86 -408h467l-55 -256h-1030l55 256h192l88 408h-167l36 176h168q39 316 188.5 473t413.5 157q109 0 201 -17t162 -50z" />
    <glyph glyph-name="section" unicode="&#xa7;" 
d="M475 791q-77 -35 -112 -71t-35 -81q0 -52 56.5 -99.5t170.5 -90.5q61 20 99 63.5t38 89.5q0 41 -39.5 78t-177.5 111zM1061 1397l-76 -244q-122 52 -204 75t-144 23q-79 0 -121.5 -26.5t-42.5 -75.5q0 -68 172 -164q50 -29 78 -45q140 -83 209 -168t69 -176
q0 -86 -62 -156t-200 -137q65 -51 97 -110t32 -127q0 -150 -120.5 -236t-331.5 -86q-134 0 -276 27t-312 86l98 252q104 -64 224.5 -99t234.5 -35q74 0 116 27.5t42 75.5q0 17 -8 36.5t-23 39.5q-21 28 -111 73t-133 70q-117 71 -181 161t-64 181q0 90 64 162t196 131
q-62 54 -93.5 113.5t-31.5 121.5q0 138 122 226t318 88q81 0 189 -19.5t274 -64.5z" />
    <glyph glyph-name="bullet" unicode="&#x2022;" horiz-adv-x="1208" 
d="M307 762q0 123 87 209t210 86q122 0 208.5 -86.5t86.5 -208.5t-87.5 -209.5t-209.5 -87.5q-123 0 -209 87t-86 210z" />
    <glyph glyph-name="paragraph" unicode="&#xb6;" 
d="M997 1479v-123h-106v-1356h-176v1356h-150v-1356h-174v784q-164 6 -263 101t-99 245q0 158 106 253.5t283 95.5h579z" />
    <glyph glyph-name="germandbls" unicode="&#xdf;" horiz-adv-x="1356" 
d="M1006 801q119 -42 178 -122t59 -202q0 -220 -157 -356.5t-414 -136.5q-46 0 -98 7t-111 21l55 256q33 -11 64 -16.5t63 -5.5q106 0 173 71.5t67 182.5q0 93 -50 141.5t-147 48.5q-17 0 -25.5 -0.5t-14.5 -1.5l50 242q7 0 17.5 -1t15.5 -1q112 0 178 62.5t66 166.5
q0 78 -43.5 120t-124.5 42t-137.5 -54.5t-77.5 -154.5l-236 -1110h-368l233 1098q51 239 199 346.5t428 107.5q228 0 352.5 -97t124.5 -275q0 -137 -84 -237t-235 -142z" />
    <glyph glyph-name="registered" unicode="&#xae;" horiz-adv-x="1706" 
d="M762 1022v-219h80q74 0 110.5 26.5t36.5 79.5q0 59 -38 86t-122 27h-67zM537 1163h329q174 0 264.5 -60t90.5 -177q0 -81 -46 -139t-128 -82l182 -361h-248l-154 326h-65v-326h-225v819zM854 1350q-124 0 -232 -44t-194 -128q-90 -90 -137 -203t-47 -238q0 -121 44 -229
t130 -195q87 -90 199 -138t235 -48q121 0 232.5 45.5t199.5 130.5t134 196.5t46 237.5q0 124 -44 233.5t-128 194.5q-89 91 -200.5 138t-237.5 47zM852 1485q156 0 294 -57.5t245 -167.5q101 -104 154.5 -238t53.5 -285q0 -155 -56.5 -291t-164.5 -239q-109 -105 -245 -161
t-281 -56q-151 0 -287 58t-243 169q-105 108 -160.5 241.5t-55.5 278.5q0 151 59 290t169 247q105 104 237 157.5t281 53.5z" />
    <glyph glyph-name="copyright" unicode="&#xa9;" horiz-adv-x="1706" 
d="M1221 891h-213q-7 67 -47.5 104t-108.5 37q-83 0 -129.5 -77t-46.5 -216q0 -140 47.5 -212t138.5 -72q67 0 106.5 40.5t45.5 114.5h215q-6 -143 -107.5 -230t-263.5 -87q-190 0 -301 117.5t-111 320.5q0 207 111 329t299 122q157 0 257 -80t108 -211zM854 1350
q-126 0 -235 -45.5t-195 -133.5q-88 -89 -135 -201t-47 -233q0 -119 47 -230.5t135 -199.5q87 -87 198 -133.5t232 -46.5t234 47t202 135q86 84 130 193t44 235q0 125 -45 235.5t-131 196.5q-88 89 -198.5 135t-235.5 46zM852 1485q154 0 289.5 -56t242.5 -163
q106 -106 160.5 -240.5t54.5 -288.5q0 -153 -54 -287t-159 -237q-109 -108 -247 -165.5t-287 -57.5q-148 0 -283.5 57t-242.5 164t-163.5 241.5t-56.5 284.5q0 148 57.5 285t164.5 246q105 106 238 161.5t286 55.5z" />
    <glyph glyph-name="trademark" unicode="&#x2122;" horiz-adv-x="1706" 
d="M797 1464h223l113 -303l114 303h221v-551h-155v390l-146 -390h-65l-150 390v-390h-155v551zM188 1464h502v-127h-164v-424h-174v424h-164v127z" />
    <glyph glyph-name="acute" unicode="&#xb4;" 
d="M668 1563h311l-391 -371h-152z" />
    <glyph glyph-name="dieresis" unicode="&#xa8;" 
d="M748 1511h249l-57 -270h-250zM385 1511h250l-57 -270h-250z" />
    <glyph glyph-name="notequal" unicode="&#x2260;" horiz-adv-x="1706" 
d="M1194 1251l168 -137l-135 -168h225v-221h-377l-180 -227h557v-222h-704l-246 -307l-170 137l135 170h-213v222h360l183 227h-543v221h694z" />
    <glyph glyph-name="AE" unicode="&#xc6;" horiz-adv-x="2087" 
d="M903 1157l-293 -588h322l119 588h-148zM707 1421h1398l-57 -264h-623l-59 -285h586l-54 -256h-587l-74 -350h645l-57 -266h-1018l67 317h-397l-168 -317h-375z" />
    <glyph glyph-name="Oslash" unicode="&#xd8;" horiz-adv-x="1593" 
d="M1126 1006l-546 -742q28 -17 59 -26t66 -9q69 0 130.5 26t110.5 75q90 90 147.5 236.5t57.5 287.5q0 33 -6 70.5t-19 81.5zM993 1178q-22 12 -48 18t-58 6q-71 0 -137 -28t-117 -80q-85 -89 -138 -232.5t-53 -290.5q0 -29 4 -63.5t11 -68.5zM1337 1647l162 -134
l-158 -210q89 -83 134 -198t45 -261q0 -155 -46.5 -303t-127.5 -258q-119 -159 -286 -238.5t-382 -79.5q-80 0 -149 14.5t-128 43.5l-159 -222l-166 129l155 205q-78 88 -118.5 201t-40.5 246q0 213 78.5 393t224.5 303q106 89 242 133.5t305 44.5q73 0 133 -10t110 -31z
" />
    <glyph glyph-name="infinity" unicode="&#x221e;" horiz-adv-x="1706" 
d="M956 561q43 -67 102 -101t132 -34q90 0 146.5 50.5t56.5 129.5q0 77 -51.5 127.5t-127.5 50.5q-72 0 -131.5 -50.5t-126.5 -172.5zM752 657q-43 67 -101 100.5t-133 33.5q-90 0 -146.5 -50t-56.5 -129q0 -77 51 -127.5t128 -50.5q71 0 132 52.5t126 170.5zM856 442
q-68 -130 -147.5 -193t-176.5 -63q-139 0 -238 121.5t-99 300.5q0 188 87.5 305t227.5 117q90 0 166.5 -56.5t175.5 -199.5q71 132 150 195t174 63q140 0 238.5 -121t98.5 -301q0 -189 -87.5 -306.5t-227.5 -117.5q-91 0 -166 55t-176 201z" />
    <glyph glyph-name="plusminus" unicode="&#xb1;" horiz-adv-x="1706" 
d="M254 213h1198v-231h-1198v231zM735 1241h238v-319h479v-232h-479v-319h-238v319h-481v232h481v319z" />
    <glyph glyph-name="lessequal" unicode="&#x2264;" horiz-adv-x="1706" 
d="M256 213h1196v-229h-1196v229zM1450 1257v-239l-776 -240l776 -239v-240l-1194 379v201z" />
    <glyph glyph-name="greaterequal" unicode="&#x2265;" horiz-adv-x="1706" 
d="M256 213h1196v-229h-1196v229zM258 1257l1192 -378v-201l-1192 -379v240l776 239l-776 240v239z" />
    <glyph glyph-name="yen" unicode="&#xa5;" horiz-adv-x="1255" 
d="M86 1421h369l120 -413q9 -25 19.5 -67t21.5 -95l23 42q55 99 72 124l274 409h418l-356 -491h167l-28 -137h-242l-125 -177h328l-31 -137h-368l-105 -479h-377l99 479h-375l33 137h323l-55 179h-232l27 135h160z" />
    <glyph glyph-name="mu" unicode="&#xb5;" horiz-adv-x="1315" 
d="M193 1090h358l-80 -529q-6 -41 -9 -77.5t-3 -65.5q0 -85 35.5 -127.5t107.5 -42.5q88 0 138.5 68.5t74.5 220.5l88 553h357l-175 -1090h-321l18 125q-40 -75 -89.5 -108t-119.5 -33q-59 0 -106.5 31t-77.5 89l-82 -532h-352z" />
    <glyph glyph-name="partialdiff" unicode="&#x2202;" horiz-adv-x="1114" 
d="M766 684q21 113 32 206t11 150q0 87 -29.5 148t-68.5 61q-35 0 -132 -93t-180 -93q-48 0 -80 33.5t-32 83.5q0 69 93 125.5t220 56.5q210 0 332.5 -161t122.5 -441q0 -344 -162.5 -564.5t-417.5 -220.5q-182 0 -299 116.5t-117 299.5q0 203 119.5 336t298.5 133
q101 0 170.5 -42.5t118.5 -133.5zM698 532q0 114 -36.5 176t-104.5 62q-96 0 -160.5 -136.5t-64.5 -346.5q0 -116 36.5 -176t106.5 -60q97 0 160 135.5t63 345.5z" />
    <glyph glyph-name="summation" unicode="&#x2211;" horiz-adv-x="1520" 
d="M72 1473h1335v-302h-838l596 -608l-587 -651h895v-305h-1424v184l684 756l-661 665v261z" />
    <glyph glyph-name="product" unicode="&#x220f;" horiz-adv-x="1645" 
d="M145 1473h1348v-1866h-399v1532h-549v-1532h-400v1866z" />
    <glyph glyph-name="pi" unicode="&#x3c0;" horiz-adv-x="1530" 
d="M1538 1090l-39 -232h-178l-135 -858h-357l134 858h-232l-135 -858h-354l133 858h-27q-42 0 -70.5 -35.5t-36.5 -97.5h-235q33 209 124.5 287t311.5 78h1096z" />
    <glyph glyph-name="integral" unicode="&#x222b;" horiz-adv-x="1249" 
d="M362 -248q99 0 119 667q3 101 4 154q17 523 130.5 753t349.5 230q105 0 170 -53t65 -137q0 -64 -41 -103.5t-106 -39.5q-64 0 -96.5 38.5t-32.5 112.5q0 38 -7.5 49t-25.5 11q-101 0 -124 -667q-2 -60 -3 -91q-11 -329 -30.5 -472.5t-57.5 -244.5q-62 -166 -159.5 -249
t-229.5 -83q-107 0 -171.5 52t-64.5 139q0 65 42 104t112 39q60 0 92.5 -36t32.5 -103q0 -12 -2 -24v-3q0 -24 8 -33.5t26 -9.5z" />
    <glyph glyph-name="ordfeminine" unicode="&#xaa;" horiz-adv-x="938" 
d="M569 1024q-14 1 -31 1.5t-49 0.5q-109 0 -166 -29.5t-57 -85.5q0 -37 27.5 -60.5t73.5 -23.5q76 0 132 54t70 143zM838 1081l-47 -209q-13 -53 -20 -97.5t-12 -88.5h-229l15 113q-46 -64 -114.5 -96.5t-158.5 -32.5q-120 0 -192 60t-72 159q0 127 121.5 197.5t343.5 70.5
q32 0 63.5 -1.5t63.5 -4.5q1 4 1.5 9t0.5 16q0 56 -38.5 85t-112.5 29q-71 0 -135.5 -14t-122.5 -43l32 172q65 22 130 32.5t132 10.5q173 0 270 -62t97 -172q0 -25 -4 -59t-12 -74z" />
    <glyph glyph-name="ordmasculine" unicode="&#xba;" 
d="M670 1108q0 76 -40.5 121t-107.5 45q-86 0 -148.5 -78.5t-62.5 -191.5q0 -73 42.5 -119.5t109.5 -46.5q86 0 146.5 78t60.5 192zM539 1444q191 0 300 -93t109 -255q0 -194 -140 -312t-372 -118q-189 0 -297 89.5t-108 245.5q0 203 137 323t371 120z" />
    <glyph glyph-name="Omega" unicode="&#x3a9;" horiz-adv-x="1645" 
d="M1266 307h333v-307h-636v352q92 82 142 196.5t50 246.5q0 182 -90 288.5t-244 106.5q-153 0 -243.5 -107.5t-90.5 -289.5q0 -132 50 -246.5t143 -194.5v-352h-635v307h332q-132 95 -200 229.5t-68 299.5q0 303 195.5 489t516.5 186q323 0 518 -185t195 -490
q0 -165 -68 -299.5t-200 -229.5z" />
    <glyph glyph-name="ae" unicode="&#xe6;" horiz-adv-x="1886" 
d="M758 481q-20 2 -41.5 3t-63.5 1q-146 0 -222.5 -41.5t-76.5 -121.5q0 -53 37.5 -86t97.5 -33q101 0 175.5 76t93.5 202zM1499 635q3 21 3.5 30.5t0.5 18.5q0 88 -46 139t-124 51q-80 0 -142.5 -63.5t-90.5 -175.5h399zM1020 981q87 58 170.5 85.5t171.5 27.5
q199 0 310.5 -121t111.5 -336q0 -52 -5.5 -102.5t-17.5 -102.5h-704q11 -117 73 -173t181 -56q77 0 161.5 20.5t169.5 61.5l-38 -260q-90 -30 -179.5 -45t-181.5 -15q-153 0 -249.5 51t-155.5 162q-86 -100 -200.5 -150.5t-254.5 -50.5q-174 0 -273.5 84t-99.5 230
q0 181 163 282t458 101q35 0 77 -2.5t93 -7.5q1 6 1.5 13.5t0.5 20.5q0 81 -52 122.5t-151 41.5q-92 0 -178 -20t-166 -60l43 246q102 33 194.5 49.5t178.5 16.5q124 0 212 -28.5t136 -84.5z" />
    <glyph glyph-name="oslash" unicode="&#xf8;" horiz-adv-x="1366" 
d="M893 721l-373 -500q22 -10 43 -15t39 -5q137 0 225 113.5t88 289.5q0 26 -5 53.5t-17 63.5zM792 837q-27 10 -51.5 14.5t-44.5 4.5q-121 0 -214 -116.5t-93 -272.5q0 -31 6 -63t19 -66zM1065 1219l123 -99l-107 -145q90 -64 136.5 -162.5t46.5 -226.5q0 -280 -191 -449.5
t-508 -169.5q-49 0 -98 9t-98 26l-142 -192l-123 106l115 154q-87 67 -132.5 164t-45.5 217q0 283 185 458.5t485 175.5q57 0 113 -9t114 -27z" />
    <glyph glyph-name="questiondown" unicode="&#xbf;" horiz-adv-x="1128" 
d="M479 950h295q-1 -93 -41 -168t-158 -180q-11 -10 -32 -29q-148 -134 -148 -213q0 -69 52.5 -106t150.5 -37q91 0 174 18t156 54l-43 -277q-83 -24 -170 -36.5t-180 -12.5q-237 0 -371.5 92.5t-134.5 251.5q0 173 258 400l20 18q105 93 138 138.5t34 86.5zM563 1421h340
l-65 -317h-342z" />
    <glyph glyph-name="exclamdown" unicode="&#xa1;" horiz-adv-x="901" 
d="M360 958h281l-154 -958h-376zM428 1421h336l-66 -325h-338z" />
    <glyph glyph-name="logicalnot" unicode="&#xac;" horiz-adv-x="1706" 
d="M254 866h1198v-501h-229v274h-969v227z" />
    <glyph glyph-name="radical" unicode="&#x221a;" horiz-adv-x="1366" 
d="M1155 1714h215v-149h-96l-590 -1606h-119l-307 846l-145 -55l-37 129l360 127l223 -635z" />
    <glyph glyph-name="florin" unicode="&#x192;" horiz-adv-x="1262" 
d="M1159 1421l-49 -245q-31 21 -59.5 33t-51.5 12q-50 0 -85.5 -48.5t-55.5 -144.5l-31 -151h207v-250h-260l-104 -492q-41 -193 -70 -276t-65 -129q-64 -79 -142 -114.5t-188 -35.5q-55 0 -110 12t-107 35l43 238q36 -21 65 -32t49 -11q58 0 90 42t58 163l127 600h-217v250
h270l51 249q39 183 130.5 268t250.5 85q59 0 122 -14.5t132 -43.5z" />
    <glyph glyph-name="approxequal" unicode="&#x2248;" horiz-adv-x="1706" 
d="M1530 602v-254q-105 -71 -196 -104t-181 -33t-283 65.5t-309 65.5q-82 0 -172.5 -37t-210.5 -121v254q111 74 209 109t195 35q115 0 304.5 -65.5t272.5 -65.5t170 35t201 116zM1530 1036v-254q-107 -70 -197 -102.5t-178 -32.5q-91 0 -284 64.5t-310 64.5q-84 0 -172 -36
t-211 -122v256q112 74 209 108t195 34q115 0 304.5 -65.5t272.5 -65.5t170.5 35.5t200.5 115.5z" />
    <glyph glyph-name="Delta" unicode="&#x2206;" horiz-adv-x="1468" 
d="M733 1059l-262 -774h526zM537 1473h395l541 -1473h-1475z" />
    <glyph glyph-name="guillemotleft" unicode="&#xab;" horiz-adv-x="1356" 
d="M979 952h348l-403 -430l301 -405h-332l-299 422zM422 952h350l-373 -401l314 -434h-332l-318 456z" />
    <glyph glyph-name="guillemotright" unicode="&#xbb;" horiz-adv-x="1356" 
d="M604 952h332l317 -458l-358 -379h-350l373 403zM92 952h332l299 -424l-385 -413h-348l403 432z" />
    <glyph glyph-name="ellipsis" unicode="&#x2026;" horiz-adv-x="2048" 
d="M119 328h340l-70 -328h-339zM801 328h340l-70 -328h-339zM1485 328h340l-70 -328h-339z" />
    <glyph glyph-name="nonbreakingspace" unicode="&#xa0;" horiz-adv-x="1262" 
 />
    <glyph glyph-name="Agrave" unicode="&#xc0;" horiz-adv-x="1532" 
d="M903 1143l-315 -572h383zM713 1421h471l229 -1421h-377l-37 303h-557l-170 -303h-399zM669 1934h271l165 -371h-141z" />
    <glyph glyph-name="Atilde" unicode="&#xc3;" horiz-adv-x="1532" 
d="M903 1143l-315 -572h383zM713 1421h471l229 -1421h-377l-37 303h-557l-170 -303h-399zM1196 1901h118q-32 -133 -88.5 -194.5t-144.5 -61.5q-23 0 -44.5 3.5t-43.5 10.5l-64 21q-17 6 -32.5 9t-30.5 3q-38 0 -64 -25t-36 -71h-121q31 131 89.5 196.5t145.5 65.5
q20 0 45 -4.5t49 -12.5l64 -20q17 -6 31 -9t26 -3q37 0 61 22t40 70z" />
    <glyph glyph-name="Otilde" unicode="&#xd5;" horiz-adv-x="1593" 
d="M1130 864q0 156 -68 241t-192 85q-87 0 -163.5 -51t-137.5 -150q-50 -81 -81 -196.5t-31 -225.5q0 -150 69 -236.5t189 -86.5q87 0 161 49.5t142 152.5q50 79 81 194t31 224zM895 1454q295 0 461 -161.5t166 -448.5q0 -153 -47 -301.5t-129 -259.5
q-116 -155 -280.5 -236.5t-363.5 -81.5q-297 0 -463.5 163.5t-166.5 453.5q0 152 41.5 293t117.5 245q122 168 287 251t377 83zM1227 1901h118q-32 -133 -88.5 -194.5t-144.5 -61.5q-23 0 -44.5 3.5t-43.5 10.5l-64 21q-17 6 -32.5 9t-30.5 3q-38 0 -64 -25t-36 -71h-121
q31 131 89.5 196.5t145.5 65.5q20 0 45 -4.5t49 -12.5l64 -20q17 -6 31 -9t26 -3q37 0 61 22t40 70z" />
    <glyph glyph-name="OE" unicode="&#x152;" horiz-adv-x="2181" 
d="M1147 1161q-72 7 -130.5 11t-98.5 4q-107 0 -179 -30t-129 -97q-71 -85 -114 -219t-43 -277q0 -152 72 -219.5t235 -67.5q39 0 88 2.5t113 8.5zM1229 1421h975l-56 -264h-624l-60 -285h588l-55 -256h-588l-74 -350h645l-55 -266h-979q-16 0 -103 -6t-157 -6
q-273 0 -433.5 167.5t-160.5 454.5q0 158 50 308.5t139 259.5q119 143 270 209.5t358 66.5q104 0 210 -16.5t110 -16.5z" />
    <glyph glyph-name="oe" unicode="&#x153;" horiz-adv-x="2087" 
d="M1958 432h-756q11 -116 77 -171.5t194 -55.5q86 0 177.5 20.5t180.5 59.5l-41 -260q-89 -28 -186 -42t-203 -14q-135 0 -225 30.5t-156 96.5q-103 -64 -212 -95.5t-230 -31.5q-249 0 -393 130t-144 352q0 288 182.5 459t493.5 171q116 0 210.5 -32t176.5 -99
q91 68 198.5 102.5t227.5 34.5q218 0 336.5 -118t118.5 -336q0 -41 -7 -90.5t-20 -110.5zM1677 635q3 21 3.5 30.5t0.5 18.5q0 88 -49.5 139t-134.5 51t-151 -63.5t-97 -175.5h428zM893 602q0 109 -53.5 173.5t-143.5 64.5q-116 0 -199 -112t-83 -273q0 -105 56.5 -171.5
t145.5 -66.5q115 0 196 111t81 274z" />
    <glyph glyph-name="endash" unicode="&#x2013;" 
d="M0 694h1024l-43 -198h-1022z" />
    <glyph glyph-name="emdash" unicode="&#x2014;" horiz-adv-x="2048" 
d="M0 694h2048l-43 -198h-2046z" />
    <glyph glyph-name="quotedblleft" unicode="&#x201c;" horiz-adv-x="1241" 
d="M1022 1536h281l-226 -557h-360zM440 1536h281l-225 -557h-361z" />
    <glyph glyph-name="quotedblright" unicode="&#x201d;" horiz-adv-x="1241" 
d="M979 1536h360l-305 -557h-280zM397 1536h361l-305 -557h-281z" />
    <glyph glyph-name="quoteleft" unicode="&#x2018;" horiz-adv-x="631" 
d="M442 1536h281l-225 -557h-361z" />
    <glyph glyph-name="quoteright" unicode="&#x2019;" horiz-adv-x="631" 
d="M383 1536h360l-303 -557h-282z" />
    <glyph glyph-name="divide" unicode="&#xf7;" horiz-adv-x="1706" 
d="M854 371q68 0 116 -48.5t48 -117.5q0 -68 -47.5 -116t-116.5 -48t-117.5 48t-48.5 116t49 117t117 49zM254 727h1198v-231h-1198v231zM854 1182q67 0 115.5 -49t48.5 -117t-48.5 -116t-117.5 -48t-116.5 48t-47.5 116t49 117t117 49z" />
    <glyph glyph-name="lozenge" unicode="&#x25ca;" horiz-adv-x="1012" 
d="M506 1409l-385 -817l385 -825l385 825zM506 1653l500 -1061l-500 -1069l-500 1069z" />
    <glyph glyph-name="ydieresis" unicode="&#xff;" horiz-adv-x="1241" 
d="M72 1053h366l64 -424v-4q24 -164 33 -281q28 68 54 125t48 98l262 486h383l-676 -1159q-115 -197 -223 -270t-270 -73q-60 0 -129 13.5t-152 40.5l86 256q42 -19 80 -28t74 -9q83 0 142 42t93 126zM857 1511h249l-57 -270h-250zM494 1511h250l-57 -270h-250z" />
    <glyph glyph-name="Ydieresis" unicode="&#x178;" horiz-adv-x="1384" 
d="M96 1421h414l133 -413q2 -6 15.5 -60l25.5 -102q34 57 62 101.5t42 64.5l299 409h443l-703 -884l-114 -537h-377l106 537zM992 1882h249l-57 -270h-250zM629 1882h250l-57 -270h-250z" />
    <glyph glyph-name="fraction" unicode="&#x2215;" horiz-adv-x="342" 
d="M440 1456h213l-751 -1489h-213z" />
    <glyph glyph-name="currency" unicode="&#xa4;" horiz-adv-x="1262" 
d="M31 616h129v19q0 47 15 139q2 14 3 20l-127 1l35 135h123q68 228 261 376t425 148q114 0 229.5 -21.5t216.5 -62.5l-94 -289q-83 52 -151.5 72.5t-155.5 20.5q-118 0 -214 -64t-153 -180h519l-35 -135h-529q-10 -46 -15 -87.5t-5 -82.5v-9h510l-35 -135h-463
q21 -116 89.5 -168.5t197.5 -52.5q78 0 153.5 20.5t169.5 67.5l-36 -328q-110 -28 -198 -40.5t-175 -12.5q-261 0 -408 139.5t-147 374.5h-170z" />
    <glyph glyph-name="guilsinglleft" unicode="&#x2039;" horiz-adv-x="793" 
d="M410 944h350l-373 -403l313 -435h-331l-318 459z" />
    <glyph glyph-name="guilsinglright" unicode="&#x203a;" horiz-adv-x="793" 
d="M35 942h332l317 -457l-356 -379h-351l371 402z" />
    <glyph glyph-name="fi" unicode="&#xf001;" horiz-adv-x="1565" 
d="M1120 1053h359l-224 -1053h-358zM1214 1497h361l-57 -266h-359zM1047 1516l-70 -236q-31 13 -58 20t-49 7q-76 0 -126.5 -67t-63.5 -187h266l-53 -256h-266l-170 -797h-363l168 797h-217l53 256h219q39 265 156.5 384t339.5 119q57 0 115.5 -10t118.5 -30z" />
    <glyph glyph-name="fl" unicode="&#xf002;" horiz-adv-x="1565" 
d="M1047 1516l-70 -236q-31 13 -58 20t-49 7q-76 0 -126.5 -67t-63.5 -187h266l-53 -256h-266l-170 -797h-363l168 797h-217l53 256h219q39 265 156.5 384t339.5 119q57 0 115.5 -10t118.5 -30zM1223 1536h364l-325 -1536h-365z" />
    <glyph glyph-name="daggerdbl" unicode="&#x2021;" 
d="M498 1421h319l-84 -403h334l-53 -250h-334l-78 -365h334l-53 -251h-334l-88 -414h-318l86 414h-335l53 251h334l77 365h-333l53 250h334z" />
    <glyph glyph-name="periodcentered" unicode="&#xb7;" horiz-adv-x="631" 
d="M315 885q73 0 123.5 -51t50.5 -123q0 -71 -51.5 -121.5t-122.5 -50.5q-69 0 -120.5 51.5t-51.5 120.5q0 71 51 122.5t121 51.5z" />
    <glyph glyph-name="quotesinglbase" unicode="&#x201a;" horiz-adv-x="631" 
d="M123 322h358l-303 -545h-287z" />
    <glyph glyph-name="quotedblbase" unicode="&#x201e;" horiz-adv-x="1241" 
d="M705 328h360l-305 -557h-281zM121 328h360l-303 -557h-282z" />
    <glyph glyph-name="perthousand" unicode="&#x2030;" horiz-adv-x="2787" 
d="M2355 623q-53 0 -76.5 -56t-23.5 -184q0 -131 22.5 -184.5t75.5 -53.5q54 0 76 53.5t22 184.5q0 133 -22 186.5t-74 53.5zM1509 623q-52 0 -75 -55t-23 -185q0 -131 22.5 -184.5t75.5 -53.5q54 0 76.5 53.5t22.5 184.5t-23 185.5t-76 54.5zM2355 801q164 0 261.5 -113
t97.5 -305q0 -191 -97.5 -303.5t-261.5 -112.5q-163 0 -260.5 113t-97.5 303q0 192 97 305t261 113zM1511 801q165 0 262 -113t97 -305q0 -191 -97.5 -303.5t-261.5 -112.5q-163 0 -261.5 113.5t-98.5 302.5q0 192 98 305t262 113zM432 1278q-53 0 -76.5 -56t-23.5 -184
q0 -132 22.5 -185.5t75.5 -53.5t75.5 53.5t22.5 185.5q0 133 -22 186.5t-74 53.5zM1241 1456h211l-750 -1489h-213zM432 1456q164 0 261.5 -113t97.5 -305q0 -191 -97.5 -304t-261.5 -113q-163 0 -260.5 113t-97.5 304q0 192 97 305t261 113z" />
    <glyph glyph-name="Acircumflex" unicode="&#xc2;" horiz-adv-x="1532" 
d="M903 1143l-315 -572h383zM713 1421h471l229 -1421h-377l-37 303h-557l-170 -303h-399zM872 1934h254l125 -371h-141l-125 199l-222 -199h-153z" />
    <glyph glyph-name="Ecircumflex" unicode="&#xca;" horiz-adv-x="1237" 
d="M287 1421h1001l-57 -264h-623l-59 -285h586l-54 -256h-587l-74 -350h645l-57 -266h-1024zM725 1934h254l125 -371h-141l-125 199l-222 -199h-153z" />
    <glyph glyph-name="Aacute" unicode="&#xc1;" horiz-adv-x="1532" 
d="M903 1143l-315 -572h383zM713 1421h471l229 -1421h-377l-37 303h-557l-170 -303h-399zM985 1934h311l-391 -371h-152z" />
    <glyph glyph-name="Edieresis" unicode="&#xcb;" horiz-adv-x="1237" 
d="M287 1421h1001l-57 -264h-623l-59 -285h586l-54 -256h-587l-74 -350h645l-57 -266h-1024zM918 1882h249l-57 -270h-250zM555 1882h250l-57 -270h-250z" />
    <glyph glyph-name="Egrave" unicode="&#xc8;" horiz-adv-x="1237" 
d="M287 1421h1001l-57 -264h-623l-59 -285h586l-54 -256h-587l-74 -350h645l-57 -266h-1024zM522 1934h271l165 -371h-141z" />
    <glyph glyph-name="Iacute" unicode="&#xcd;" horiz-adv-x="678" 
d="M295 1421h379l-303 -1421h-379zM559 1934h311l-391 -371h-152z" />
    <glyph glyph-name="Icircumflex" unicode="&#xce;" horiz-adv-x="678" 
d="M295 1421h379l-303 -1421h-379zM446 1934h254l125 -371h-141l-125 199l-222 -199h-153z" />
    <glyph glyph-name="Idieresis" unicode="&#xcf;" horiz-adv-x="678" 
d="M295 1421h379l-303 -1421h-379zM639 1882h249l-57 -270h-250zM276 1882h250l-57 -270h-250z" />
    <glyph glyph-name="Igrave" unicode="&#xcc;" horiz-adv-x="678" 
d="M295 1421h379l-303 -1421h-379zM243 1934h271l165 -371h-141z" />
    <glyph glyph-name="Oacute" unicode="&#xd3;" horiz-adv-x="1593" 
d="M1130 864q0 156 -68 241t-192 85q-87 0 -163.5 -51t-137.5 -150q-50 -81 -81 -196.5t-31 -225.5q0 -150 69 -236.5t189 -86.5q87 0 161 49.5t142 152.5q50 79 81 194t31 224zM895 1454q295 0 461 -161.5t166 -448.5q0 -153 -47 -301.5t-129 -259.5
q-116 -155 -280.5 -236.5t-363.5 -81.5q-297 0 -463.5 163.5t-166.5 453.5q0 152 41.5 293t117.5 245q122 168 287 251t377 83zM1016 1934h311l-391 -371h-152z" />
    <glyph glyph-name="Ocircumflex" unicode="&#xd4;" horiz-adv-x="1593" 
d="M1130 864q0 156 -68 241t-192 85q-87 0 -163.5 -51t-137.5 -150q-50 -81 -81 -196.5t-31 -225.5q0 -150 69 -236.5t189 -86.5q87 0 161 49.5t142 152.5q50 79 81 194t31 224zM895 1454q295 0 461 -161.5t166 -448.5q0 -153 -47 -301.5t-129 -259.5
q-116 -155 -280.5 -236.5t-363.5 -81.5q-297 0 -463.5 163.5t-166.5 453.5q0 152 41.5 293t117.5 245q122 168 287 251t377 83zM903 1934h254l125 -371h-141l-125 199l-222 -199h-153z" />
    <glyph glyph-name="apple" unicode="&#xf000;" horiz-adv-x="1618" 
d="M836 1216q-1 6 -1.5 14t-0.5 23q0 124 95 229.5t236 131.5q1 -10 1.5 -23t0.5 -39q0 -131 -103.5 -234.5t-203.5 -103.5h-8q-3 0 -7.5 1t-8.5 1zM1505 403q-114 -247 -205 -342.5t-204 -95.5q-50 0 -131.5 33t-122.5 33q-45 0 -131 -33t-127 -33q-64 0 -128.5 44
t-129.5 132q-102 140 -157.5 295.5t-55.5 300.5q0 219 125 356.5t323 137.5q68 0 155 -34t124 -34q34 0 121.5 35t152.5 35q110 0 198 -40t161 -124q-102 -65 -151.5 -145.5t-49.5 -182.5q0 -113 60 -200t173 -138z" />
    <glyph glyph-name="Ograve" unicode="&#xd2;" horiz-adv-x="1593" 
d="M1130 864q0 156 -68 241t-192 85q-87 0 -163.5 -51t-137.5 -150q-50 -81 -81 -196.5t-31 -225.5q0 -150 69 -236.5t189 -86.5q87 0 161 49.5t142 152.5q50 79 81 194t31 224zM895 1454q295 0 461 -161.5t166 -448.5q0 -153 -47 -301.5t-129 -259.5
q-116 -155 -280.5 -236.5t-363.5 -81.5q-297 0 -463.5 163.5t-166.5 453.5q0 152 41.5 293t117.5 245q122 168 287 251t377 83zM700 1934h271l165 -371h-141z" />
    <glyph glyph-name="Uacute" unicode="&#xda;" horiz-adv-x="1507" 
d="M285 1421h381l-172 -792q-12 -52 -17.5 -102.5t-5.5 -98.5q0 -80 58 -135t143 -55q114 0 181 88t118 317l172 778h366l-182 -884q-62 -300 -224 -437t-454 -137q-269 0 -413 123.5t-144 353.5q0 52 5 100.5t16 92.5zM973 1934h311l-391 -371h-152z" />
    <glyph glyph-name="Ucircumflex" unicode="&#xdb;" horiz-adv-x="1507" 
d="M285 1421h381l-172 -792q-12 -52 -17.5 -102.5t-5.5 -98.5q0 -80 58 -135t143 -55q114 0 181 88t118 317l172 778h366l-182 -884q-62 -300 -224 -437t-454 -137q-269 0 -413 123.5t-144 353.5q0 52 5 100.5t16 92.5zM860 1934h254l125 -371h-141l-125 199l-222 -199h-153
z" />
    <glyph glyph-name="Ugrave" unicode="&#xd9;" horiz-adv-x="1507" 
d="M285 1421h381l-172 -792q-12 -52 -17.5 -102.5t-5.5 -98.5q0 -80 58 -135t143 -55q114 0 181 88t118 317l172 778h366l-182 -884q-62 -300 -224 -437t-454 -137q-269 0 -413 123.5t-144 353.5q0 52 5 100.5t16 92.5zM657 1934h271l165 -371h-141z" />
    <glyph glyph-name="dotlessi" unicode="&#x131;" horiz-adv-x="678" 
d="M246 1053h358l-223 -1053h-358z" />
    <glyph glyph-name="circumflex" unicode="&#x2c6;" 
d="M555 1563h254l125 -371h-141l-125 199l-222 -199h-153z" />
    <glyph glyph-name="tilde" unicode="&#x2dc;" 
d="M879 1530h118q-32 -133 -88.5 -194.5t-144.5 -61.5q-23 0 -44.5 3.5t-43.5 10.5l-64 21q-17 6 -32.5 9t-30.5 3q-38 0 -64 -25t-36 -71h-121q31 131 89.5 196.5t145.5 65.5q20 0 45 -4.5t49 -12.5l64 -20q17 -6 31 -9t26 -3q37 0 61 22t40 70z" />
    <glyph glyph-name="macron" unicode="&#xaf;" 
d="M375 1462h612l-35 -170h-614z" />
    <glyph glyph-name="breve" unicode="&#x2d8;" 
d="M379 1530h131v-10q0 -66 35.5 -97.5t109.5 -31.5q82 0 136 34t86 105h135q-47 -156 -140.5 -231.5t-240.5 -75.5q-125 0 -189.5 66.5t-64.5 195.5q0 18 0.5 27.5t1.5 17.5z" />
    <glyph glyph-name="dotaccent" unicode="&#x2d9;" 
d="M563 1518h260l-59 -281h-262z" />
    <glyph glyph-name="ring" unicode="&#x2da;" 
d="M682 1567q-53 0 -88 -35t-35 -88q0 -52 35.5 -87.5t87.5 -35.5q51 0 86 35.5t35 87.5t-35 87.5t-86 35.5zM680 1716q113 0 192.5 -79t79.5 -191q0 -114 -78.5 -193t-193.5 -79q-114 0 -192 78.5t-78 193.5q0 114 78 192t192 78z" />
    <glyph glyph-name="cedilla" unicode="&#xb8;" 
d="M334 0h115l-33 -92q115 -2 174 -46t59 -128q0 -111 -72.5 -171.5t-205.5 -60.5q-52 0 -124 14.5t-171 45.5l51 133q64 -26 124 -39.5t111 -13.5q45 0 71 20t26 55q0 37 -36 52.5t-122 15.5h-41z" />
    <glyph glyph-name="hungarumlaut" unicode="&#x2dd;" 
d="M885 1563h278l-350 -371h-121zM537 1563h268l-303 -371h-111z" />
    <glyph glyph-name="ogonek" unicode="&#x2db;" 
d="M342 0h107q-63 -56 -91 -102.5t-28 -94.5q0 -41 18.5 -60t57.5 -19h124l-41 -191h-55q-155 0 -221 46t-66 151q0 75 47 140.5t148 129.5z" />
    <glyph glyph-name="caron" unicode="&#x2c7;" 
d="M371 1563h141l125 -199l223 199h152l-260 -371h-254z" />
    <glyph glyph-name="Lslash" unicode="&#x141;" horiz-adv-x="1157" 
d="M326 1421h383l-97 -438l318 129l-47 -242l-318 -129l-100 -458h588l-62 -283h-968l120 575l-153 -69l47 242l158 65z" />
    <glyph glyph-name="lslash" unicode="&#x142;" horiz-adv-x="678" 
d="M332 1536h364l-118 -561l157 69l-41 -190l-157 -68l-166 -786h-365l135 639l-157 -68l41 191l157 67z" />
    <glyph glyph-name="Scaron" unicode="&#x160;" horiz-adv-x="1247" 
d="M1229 1389l-88 -277q-78 35 -158 52.5t-164 17.5q-127 0 -194.5 -37.5t-67.5 -108.5q0 -77 152 -140q61 -25 96 -42q177 -86 241 -168t64 -209q0 -233 -178 -371.5t-483 -138.5q-129 0 -247.5 19.5t-228.5 58.5l82 293q89 -44 172.5 -66t163.5 -22q146 0 230 48t84 130
q0 103 -223 192q-56 22 -87 35q-121 51 -180 134t-59 200q0 206 165 334.5t433 128.5q149 0 269.5 -16t205.5 -47zM547 1934h141l125 -199l223 199h152l-260 -371h-254z" />
    <glyph glyph-name="scaron" unicode="&#x161;" 
d="M979 1020l-80 -232q-100 34 -162.5 47t-115.5 13q-77 0 -120.5 -26t-43.5 -70q0 -57 132 -105q54 -20 85 -33q112 -47 163.5 -109t51.5 -151q0 -173 -135.5 -278t-362.5 -105q-112 0 -216.5 17t-203.5 51l76 254q74 -36 147 -54t148 -18q89 0 136.5 24.5t47.5 69.5
q0 66 -123 114q-20 7 -30 11q-154 63 -209 128t-55 169q0 153 137 249.5t362 96.5q85 0 177 -15.5t194 -47.5zM371 1563h141l125 -199l223 199h152l-260 -371h-254z" />
    <glyph glyph-name="Zcaron" unicode="&#x17d;" horiz-adv-x="1280" 
d="M270 1421h1096l-68 -286l-876 -861h698l-67 -274h-1108l67 332l826 819h-625zM564 1934h141l125 -199l223 199h152l-260 -371h-254z" />
    <glyph glyph-name="zcaron" unicode="&#x17e;" horiz-adv-x="1071" 
d="M182 1053h887l-59 -281l-566 -506h478l-58 -266h-925l59 281l565 512h-436zM396 1563h141l125 -199l223 199h152l-260 -371h-254z" />
    <glyph glyph-name="brokenbar" unicode="&#xa6;" 
d="M393 408h240v-758h-240v758zM393 1432h240v-758h-240v758z" />
    <glyph glyph-name="Eth" unicode="&#xd0;" horiz-adv-x="1602" 
d="M647 1147l-65 -311h249l-43 -203h-249l-76 -352h158q126 0 212.5 29t149.5 91q75 76 117.5 182.5t42.5 221.5q0 164 -91.5 253t-260.5 89h-144zM317 1421h474q374 0 557.5 -155t183.5 -473q0 -182 -64.5 -337.5t-181.5 -256.5q-118 -104 -277.5 -151.5t-398.5 -47.5h-594
l138 633h-160l43 203h156z" />
    <glyph glyph-name="eth" unicode="&#xf0;" horiz-adv-x="1366" 
d="M893 602q0 109 -53.5 173.5t-143.5 64.5q-116 0 -199 -112t-83 -273q0 -105 56.5 -171.5t145.5 -66.5q115 0 196 111t81 274zM387 1532h375q26 -24 46 -45t36 -41l262 76l41 -129l-201 -62q167 -199 243.5 -371t76.5 -346q0 -297 -184 -471t-500 -174q-251 0 -396 129.5
t-145 352.5q0 117 36.5 223.5t106.5 191.5q82 101 203.5 158t251.5 57q24 0 58 -3t79 -9q-40 67 -68.5 108.5t-54.5 73.5l-321 -92l-41 135l266 72q-34 36 -76 76.5t-94 89.5z" />
    <glyph glyph-name="Yacute" unicode="&#xdd;" horiz-adv-x="1384" 
d="M96 1421h414l133 -413q2 -6 15.5 -60l25.5 -102q34 57 62 101.5t42 64.5l299 409h443l-703 -884l-114 -537h-377l106 537zM912 1934h311l-391 -371h-152z" />
    <glyph glyph-name="yacute" unicode="&#xfd;" horiz-adv-x="1241" 
d="M72 1053h366l64 -424v-4q24 -164 33 -281q28 68 54 125t48 98l262 486h383l-676 -1159q-115 -197 -223 -270t-270 -73q-60 0 -129 13.5t-152 40.5l86 256q42 -19 80 -28t74 -9q83 0 142 42t93 126zM777 1563h311l-391 -371h-152z" />
    <glyph glyph-name="Thorn" unicode="&#xde;" horiz-adv-x="1266" 
d="M541 909l-80 -381h100q138 0 213.5 55.5t75.5 155.5q0 82 -57.5 126t-163.5 44h-88zM270 1421h377l-53 -256h41q301 0 443.5 -93.5t142.5 -291.5q0 -245 -163.5 -385.5t-449.5 -140.5q-36 0 -86 1.5t-116 4.5l-60 -260h-379z" />
    <glyph glyph-name="thorn" unicode="&#xfe;" horiz-adv-x="1403" 
d="M938 598q0 97 -49.5 154t-132.5 57q-112 0 -194.5 -102t-82.5 -242q0 -102 53 -162.5t142 -60.5q109 0 186.5 104t77.5 252zM330 1536h364l-129 -606q71 77 156 115t184 38q188 0 299 -127t111 -344q0 -284 -155 -462.5t-402 -178.5q-116 0 -205.5 53t-142.5 152
l-129 -604h-369z" />
    <glyph glyph-name="minus" unicode="&#x2212;" horiz-adv-x="1706" 
d="M254 729h1198v-235h-1198v235z" />
    <glyph glyph-name="multiply" unicode="&#xd7;" horiz-adv-x="1706" 
d="M430 1214l440 -440l441 440l162 -161l-441 -443l441 -440l-162 -162l-441 441l-440 -441l-162 162l441 440l-441 443z" />
    <glyph glyph-name="onesuperior" unicode="&#xb9;" horiz-adv-x="831" 
d="M510 1419h184l-192 -852h-238l158 637l-186 -123l-97 164z" />
    <glyph glyph-name="twosuperior" unicode="&#xb2;" horiz-adv-x="834" 
d="M551 866l-219 -139h360l-39 -160h-663l37 160l348 242q83 56 119 103t36 95q0 53 -37.5 84t-101.5 31q-38 0 -87.5 -12t-135.5 -43l27 180q67 18 129 27.5t118 9.5q153 0 241.5 -68.5t88.5 -185.5q0 -88 -57.5 -172t-163.5 -152z" />
    <glyph glyph-name="threesuperior" unicode="&#xb3;" horiz-adv-x="834" 
d="M532 1008q84 -20 127 -65t43 -114q0 -133 -109 -207.5t-306 -74.5q-75 0 -150.5 14t-154.5 43l49 170q46 -27 102 -40t123 -13q97 0 154 33.5t57 89.5q0 47 -47.5 69.5t-149.5 22.5q-22 0 -34.5 -0.5t-24.5 -1.5l33 147h63q135 0 187.5 22.5t52.5 76.5q0 47 -39.5 73.5
t-110.5 26.5q-45 0 -104 -10.5t-127 -30.5l27 168q60 15 125 23t137 8q152 0 237.5 -59t85.5 -162q0 -85 -65.5 -141t-180.5 -68z" />
    <glyph glyph-name="onequarter" unicode="&#xbc;" horiz-adv-x="1931" 
d="M1659 653l-324 -352h230zM1626 797h262l-119 -496h129l-34 -141h-127l-37 -160h-223l36 160h-385l25 141zM1235 1456h213l-752 -1489h-213zM485 1419h177l-183 -796h-227l151 594l-178 -115l-92 153z" />
    <glyph glyph-name="onehalf" unicode="&#xbd;" horiz-adv-x="1931" 
d="M1661 279l-207 -129h344l-37 -150h-633l33 150l334 225q77 50 112 94.5t35 89.5q0 49 -35.5 78t-97.5 29q-36 0 -85 -12t-128 -40l27 168q63 19 122.5 28t115.5 9q144 0 228.5 -64t84.5 -173q0 -82 -54.5 -160t-158.5 -143zM1235 1456h213l-752 -1489h-213zM485 1419h177
l-183 -796h-227l151 594l-178 -115l-92 153z" />
    <glyph glyph-name="threequarters" unicode="&#xbe;" horiz-adv-x="1931" 
d="M1659 653l-324 -352h230zM1626 797h262l-119 -496h129l-34 -141h-127l-37 -160h-223l36 160h-385l25 141zM1235 1456h213l-752 -1489h-213zM508 1034q82 -20 123 -62t41 -106q0 -124 -104.5 -193t-293.5 -69q-73 0 -145.5 13.5t-146.5 39.5l47 158q46 -25 100 -37
t117 -12q92 0 145 31t53 84q0 44 -44.5 65t-141.5 21q-21 0 -33 -0.5t-24 -1.5l32 139q12 0 32 -1t30 -1q126 0 176.5 21t50.5 71q0 44 -38 69t-105 25q-46 0 -101.5 -9.5t-119.5 -29.5l26 158q60 14 121.5 21.5t128.5 7.5q144 0 226.5 -55.5t82.5 -151.5q0 -80 -62.5 -132
t-172.5 -63z" />
    <glyph glyph-name="franc" unicode="&#x20a3;" horiz-adv-x="2087" 
d="M289 1421h950l-57 -264h-574l-63 -307h549l-56 -266h-551l-122 -584h-379zM2150 1059l-82 -307q-51 14 -90.5 21t-68.5 7q-117 0 -183 -73t-106 -252l-98 -455h-369l215 1057h334l-39 -193q80 115 162 166t186 51q32 0 66 -5.5t73 -16.5z" />
    <glyph glyph-name="Gbreve" unicode="&#x11e;" horiz-adv-x="1561" 
d="M1491 1386l-82 -292q-80 43 -165.5 64.5t-178.5 21.5q-282 0 -442 -144t-160 -395q0 -183 98 -287t270 -104q35 0 72 5.5t80 16.5l64 297h-234l55 258h592l-168 -786q-106 -35 -226 -52.5t-263 -17.5q-345 0 -535 177t-190 497q0 162 53.5 302.5t157.5 246.5
q130 136 305 199t426 63q129 0 246 -17t225 -53zM711 1901h131v-10q0 -66 35.5 -97.5t109.5 -31.5q82 0 136 34t86 105h135q-47 -156 -140.5 -231.5t-240.5 -75.5q-125 0 -189.5 66.5t-64.5 195.5q0 18 0.5 27.5t1.5 17.5z" />
    <glyph glyph-name="gbreve" unicode="&#x11f;" horiz-adv-x="1403" 
d="M881 594q0 96 -55 155.5t-142 59.5q-110 0 -187 -104.5t-77 -258.5q0 -91 50 -147.5t132 -56.5q114 0 196.5 103t82.5 249zM987 1053h365l-224 -1051q-47 -230 -207.5 -343.5t-437.5 -113.5q-101 0 -204 18.5t-209 55.5l67 272q70 -44 152.5 -67t177.5 -23q171 0 262 98
t121 314q-81 -107 -178.5 -160t-214.5 -53q-187 0 -298.5 125t-111.5 336q0 113 30.5 214t90.5 185q75 108 186.5 164.5t247.5 56.5q116 0 204.5 -52.5t141.5 -154.5zM569 1530h131v-10q0 -66 35.5 -97.5t109.5 -31.5q82 0 136 34t86 105h135q-47 -156 -140.5 -231.5
t-240.5 -75.5q-125 0 -189.5 66.5t-64.5 195.5q0 18 0.5 27.5t1.5 17.5z" />
    <glyph glyph-name="Idotaccent" unicode="&#x130;" horiz-adv-x="678" 
d="M295 1421h379l-303 -1421h-379zM454 1889h260l-59 -281h-262z" />
    <glyph glyph-name="Scedilla" unicode="&#x15e;" horiz-adv-x="1247" 
d="M1229 1389l-88 -277q-78 35 -158 52.5t-164 17.5q-127 0 -194.5 -37.5t-67.5 -108.5q0 -77 152 -140q61 -25 96 -42q177 -86 241 -168t64 -209q0 -233 -178 -371.5t-483 -138.5q-129 0 -247.5 19.5t-228.5 58.5l82 293q89 -44 172.5 -66t163.5 -22q146 0 230 48t84 130
q0 103 -223 192q-56 22 -87 35q-121 51 -180 134t-59 200q0 206 165 334.5t433 128.5q149 0 269.5 -16t205.5 -47zM447 0h115l-33 -92q115 -2 174 -46t59 -128q0 -111 -72.5 -171.5t-205.5 -60.5q-52 0 -124 14.5t-171 45.5l51 133q64 -26 124 -39.5t111 -13.5q45 0 71 20
t26 55q0 37 -36 52.5t-122 15.5h-41z" />
    <glyph glyph-name="scedilla" unicode="&#x15f;" 
d="M979 1020l-80 -232q-100 34 -162.5 47t-115.5 13q-77 0 -120.5 -26t-43.5 -70q0 -57 132 -105q54 -20 85 -33q112 -47 163.5 -109t51.5 -151q0 -173 -135.5 -278t-362.5 -105q-112 0 -216.5 17t-203.5 51l76 254q74 -36 147 -54t148 -18q89 0 136.5 24.5t47.5 69.5
q0 66 -123 114q-20 7 -30 11q-154 63 -209 128t-55 169q0 153 137 249.5t362 96.5q85 0 177 -15.5t194 -47.5zM334 0h115l-33 -92q115 -2 174 -46t59 -128q0 -111 -72.5 -171.5t-205.5 -60.5q-52 0 -124 14.5t-171 45.5l51 133q64 -26 124 -39.5t111 -13.5q45 0 71 20t26 55
q0 37 -36 52.5t-122 15.5h-41z" />
    <glyph glyph-name="Cacute" unicode="&#x106;" horiz-adv-x="1356" 
d="M1442 1370l-94 -289q-75 47 -158.5 70t-179.5 23q-257 0 -401 -145.5t-144 -403.5q0 -168 109 -266.5t296 -98.5q83 0 167.5 22t172.5 66l-36 -328q-104 -26 -201 -39.5t-189 -13.5q-335 0 -522.5 177t-187.5 491q0 162 58.5 313t162.5 258q125 129 284.5 188.5
t378.5 59.5q114 0 234 -21t250 -63zM983 1934h311l-391 -371h-152z" />
    <glyph glyph-name="cacute" unicode="&#x107;" horiz-adv-x="1020" 
d="M1047 1014l-84 -254q-59 27 -115.5 41t-110.5 14q-146 0 -235.5 -83.5t-89.5 -219.5q0 -119 73.5 -188.5t198.5 -69.5q50 0 101.5 12t107.5 37l-43 -278q-84 -22 -158.5 -32.5t-142.5 -10.5q-239 0 -380.5 133.5t-141.5 355.5q0 275 183 443.5t484 168.5q90 0 178 -17
t175 -52zM736 1563h311l-391 -371h-152z" />
    <glyph glyph-name="Ccaron" unicode="&#x10c;" horiz-adv-x="1356" 
d="M1442 1370l-94 -289q-75 47 -158.5 70t-179.5 23q-257 0 -401 -145.5t-144 -403.5q0 -168 109 -266.5t296 -98.5q83 0 167.5 22t172.5 66l-36 -328q-104 -26 -201 -39.5t-189 -13.5q-335 0 -522.5 177t-187.5 491q0 162 58.5 313t162.5 258q125 129 284.5 188.5
t378.5 59.5q114 0 234 -21t250 -63zM686 1934h141l125 -199l223 199h152l-260 -371h-254z" />
    <glyph glyph-name="ccaron" unicode="&#x10d;" horiz-adv-x="1020" 
d="M1047 1014l-84 -254q-59 27 -115.5 41t-110.5 14q-146 0 -235.5 -83.5t-89.5 -219.5q0 -119 73.5 -188.5t198.5 -69.5q50 0 101.5 12t107.5 37l-43 -278q-84 -22 -158.5 -32.5t-142.5 -10.5q-239 0 -380.5 133.5t-141.5 355.5q0 275 183 443.5t484 168.5q90 0 178 -17
t175 -52zM439 1563h141l125 -199l223 199h152l-260 -371h-254z" />
    <glyph glyph-name="dcroat" unicode="&#x111;" horiz-adv-x="1403" 
d="M881 594q0 96 -54.5 155.5t-142.5 59.5q-110 0 -187 -105t-77 -258q0 -91 50 -147.5t132 -56.5q114 0 196.5 103.5t82.5 248.5zM1092 1536h362l-33 -158h144l-35 -161h-144l-258 -1217h-327l39 176q-75 -102 -172.5 -154.5t-212.5 -52.5q-189 0 -300.5 127t-111.5 342
q0 284 156.5 463.5t402.5 179.5q114 0 203 -53t143 -154l74 343h-303l35 161h303z" />
    <glyph glyph-name="sfthyphen" unicode="&#xad;" horiz-adv-x="678" 
d="M70 725h551l-56 -258h-551z" />
    <glyph glyph-name="periodcentered" unicode="&#x2219;" horiz-adv-x="631" 
d="M315 885q73 0 123.5 -51t50.5 -123q0 -71 -51.5 -121.5t-122.5 -50.5q-69 0 -120.5 51.5t-51.5 120.5q0 71 51 122.5t121 51.5z" />
    <glyph glyph-name="Euro" horiz-adv-x="1262" 
d="M31 616h129v19q0 47 15 139q2 14 3 20l-127 1l35 135h123q68 228 261 376t425 148q114 0 229.5 -21.5t216.5 -62.5l-94 -289q-83 52 -151.5 72.5t-155.5 20.5q-118 0 -214 -64t-153 -180h519l-35 -135h-529q-10 -46 -15 -87.5t-5 -82.5v-9h510l-35 -135h-463
q21 -116 89.5 -168.5t197.5 -52.5q78 0 153.5 20.5t169.5 67.5l-36 -328q-110 -28 -198 -40.5t-175 -12.5q-261 0 -408 139.5t-147 374.5h-170z" />
    <glyph glyph-name="Euro" unicode="&#x20ac;" horiz-adv-x="1262" 
d="M31 616h129v19q0 47 15 139q2 14 3 20l-127 1l35 135h123q68 228 261 376t425 148q114 0 229.5 -21.5t216.5 -62.5l-94 -289q-83 52 -151.5 72.5t-155.5 20.5q-118 0 -214 -64t-153 -180h519l-35 -135h-529q-10 -46 -15 -87.5t-5 -82.5v-9h510l-35 -135h-463
q21 -116 89.5 -168.5t197.5 -52.5q78 0 153.5 20.5t169.5 67.5l-36 -328q-110 -28 -198 -40.5t-175 -12.5q-261 0 -408 139.5t-147 374.5h-170z" />
    </font>
</defs>
</svg>
